<?xml version="1.0" encoding="UTF-8"?>
<svg version="1.1" viewBox="0 0 1500 2000" xmlns="http://www.w3.org/2000/svg" xmlns:xlink="http://www.w3.org/1999/xlink">
 <defs>
  <linearGradient id="cd">
   <stop stop-color="#8a4e26" offset="0"/>
   <stop stop-color="#8a4e26" stop-opacity="0" offset="1"/>
  </linearGradient>
  <linearGradient id="cg">
   <stop offset="0"/>
   <stop stop-color="#fff" stop-opacity="0" offset="1"/>
  </linearGradient>
  <linearGradient id="ch">
   <stop stop-color="#faa" offset="0"/>
   <stop stop-color="#faa" stop-opacity="0" offset="1"/>
  </linearGradient>
  <filter id="cc" x="-.31304" y="-.31304" width="1.6261" height="1.6261" color-interpolation-filters="sRGB">
   <feGaussianBlur stdDeviation="0.19798136"/>
  </filter>
  <filter id="df" x="-.23675" y="-.74257" width="1.4735" height="2.4851" color-interpolation-filters="sRGB">
   <feGaussianBlur stdDeviation="1.0157672"/>
  </filter>
  <filter id="dc" color-interpolation-filters="sRGB">
   <feGaussianBlur stdDeviation="0.1412381"/>
  </filter>
  <filter id="ce" x="-.024233" y="-.15037" width="1.0485" height="1.3007" color-interpolation-filters="sRGB">
   <feGaussianBlur stdDeviation="0.64978836"/>
  </filter>
  <filter id="dg" color-interpolation-filters="sRGB">
   <feGaussianBlur stdDeviation="0.71483337"/>
  </filter>
  <filter id="dh" x="-.033423" y="-.11886" width="1.0668" height="1.2377" color-interpolation-filters="sRGB">
   <feGaussianBlur stdDeviation="1.051356"/>
  </filter>
  <filter id="di" color-interpolation-filters="sRGB">
   <feGaussianBlur stdDeviation="0.98347624"/>
  </filter>
  <filter id="dj" x="-.25911" y="-.1747" width="1.5182" height="1.3494" color-interpolation-filters="sRGB">
   <feGaussianBlur stdDeviation="1.4916809"/>
  </filter>
  <filter id="dk" x="-.25911" y="-.1747" width="1.5182" height="1.3494" color-interpolation-filters="sRGB">
   <feGaussianBlur stdDeviation="1.4916809"/>
  </filter>
  <filter id="dd" color-interpolation-filters="sRGB">
   <feGaussianBlur stdDeviation="1.480257"/>
  </filter>
  <filter id="de" color-interpolation-filters="sRGB">
   <feGaussianBlur stdDeviation="0.81010576"/>
  </filter>
  <filter id="dl" color-interpolation-filters="sRGB">
   <feGaussianBlur stdDeviation="0.98721254"/>
  </filter>
  <filter id="dn" x="-.097691" y="-.12074" width="1.1954" height="1.2415" color-interpolation-filters="sRGB">
   <feGaussianBlur stdDeviation="1.599107"/>
  </filter>
  <filter id="do" x="-.1761" y="-.055154" width="1.3522" height="1.1103" color-interpolation-filters="sRGB">
   <feGaussianBlur stdDeviation="2.3623321"/>
  </filter>
  <filter id="dm" color-interpolation-filters="sRGB">
   <feGaussianBlur stdDeviation="4.3505775"/>
  </filter>
  <filter id="dp" x="-.19315" y="-.20572" width="1.3863" height="1.4114">
   <feGaussianBlur stdDeviation="19.663833"/>
  </filter>
  <filter id="dq" x="-.40328" y="-.32973" width="1.8066" height="1.6595">
   <feGaussianBlur stdDeviation="19.663833"/>
  </filter>
  <filter id="dr" x="-1.1377" y="-.57849" width="3.2755" height="2.157">
   <feGaussianBlur stdDeviation="19.663833"/>
  </filter>
  <filter id="ds" x="-2.4819" y="-.72587" width="5.9638" height="2.4517">
   <feGaussianBlur stdDeviation="19.663833"/>
  </filter>
  <filter id="dt" x="-.27212" y="-.30179" width="1.5442" height="1.6036">
   <feGaussianBlur stdDeviation="19.663833"/>
  </filter>
  <filter id="du" x="-1.7964" y="-1.1162" width="4.5928" height="3.2324">
   <feGaussianBlur stdDeviation="19.663833"/>
  </filter>
  <filter id="dv">
   <feGaussianBlur stdDeviation="19.663833"/>
  </filter>
  <filter id="dw" x="-.12462" y="-.062" width="1.2492" height="1.124">
   <feGaussianBlur stdDeviation="19.663833"/>
  </filter>
  <filter id="dx" x="-.11658" y="-.090292" width="1.2332" height="1.1806">
   <feGaussianBlur stdDeviation="19.663833"/>
  </filter>
  <filter id="dy" x="-.15075" y="-.118" width="1.3015" height="1.236">
   <feGaussianBlur stdDeviation="19.663833"/>
  </filter>
  <filter id="dz" x="-.29212" y="-.20048" width="1.5842" height="1.401">
   <feGaussianBlur stdDeviation="19.663833"/>
  </filter>
  <filter id="ea" x="-.17977" y="-.14841" width="1.3595" height="1.2968">
   <feGaussianBlur stdDeviation="19.663833"/>
  </filter>
  <filter id="eb">
   <feGaussianBlur stdDeviation="19.663833"/>
  </filter>
  <filter id="ec" x="-.15957" y="-.14189" width="1.3191" height="1.2838">
   <feGaussianBlur stdDeviation="4.6323784"/>
  </filter>
  <filter id="ed" x="-.15481" y="-.13484" width="1.3096" height="1.2697">
   <feGaussianBlur stdDeviation="19.663833"/>
  </filter>
  <filter id="ee" x="-.56762" y="-.16272" width="2.1352" height="1.3254">
   <feGaussianBlur stdDeviation="3.1521316"/>
  </filter>
  <filter id="ef" x="-.13701" y="-.22011" width="1.274" height="1.4402">
   <feGaussianBlur stdDeviation="19.663833"/>
  </filter>
  <filter id="eg" x="-.43315" y="-.14472" width="1.8663" height="1.2894">
   <feGaussianBlur stdDeviation="19.663833"/>
  </filter>
  <filter id="eh" x="-.43315" y="-.14472" width="1.8663" height="1.2894">
   <feGaussianBlur stdDeviation="19.663833"/>
  </filter>
  <filter id="ei" x="-.71573" y="-.097301" width="2.4315" height="1.1946">
   <feGaussianBlur stdDeviation="19.663833"/>
  </filter>
  <filter id="ej" x="-.14332" y="-.43453" width="1.2866" height="1.8691">
   <feGaussianBlur stdDeviation="4.6323784"/>
  </filter>
  <filter id="ek" x="-.13817" y="-.49137" width="1.2763" height="1.9827">
   <feGaussianBlur stdDeviation="4.3464034"/>
  </filter>
  <filter id="el" x="-.1494" y="-.56912" width="1.2988" height="2.1382">
   <feGaussianBlur stdDeviation="4.6323784"/>
  </filter>
  <filter id="em" x="-.1505" y="-.93389" width="1.301" height="2.8678">
   <feGaussianBlur stdDeviation="4.0354819"/>
  </filter>
  <filter id="en" x="-.80466" y="-.54254" width="2.6093" height="2.0851">
   <feGaussianBlur stdDeviation="4.6323784"/>
  </filter>
  <filter id="eo" x="-.80466" y="-.54254" width="2.6093" height="2.0851">
   <feGaussianBlur stdDeviation="4.6323784"/>
  </filter>
  <filter id="ep" x="-.41415" y="-.97753" width="1.8283" height="2.9551">
   <feGaussianBlur stdDeviation="19.663833"/>
  </filter>
  <filter id="eq" x="-.56083" y="-2.7397" width="2.1217" height="6.4794">
   <feGaussianBlur stdDeviation="19.663833"/>
  </filter>
  <filter id="er" x="-1.8499" y="-4.3083" width="4.6998" height="9.6165">
   <feGaussianBlur stdDeviation="19.663833"/>
  </filter>
  <filter id="es" x="-1.1097" y="-3.4805" width="3.2193" height="7.9609">
   <feGaussianBlur stdDeviation="4.7609642"/>
  </filter>
  <filter id="et" x="-.51449" y="-2.096" width="2.029" height="5.1919">
   <feGaussianBlur stdDeviation="19.663833"/>
  </filter>
  <filter id="eu" x="-.69914" y="-1.509" width="2.3983" height="4.018">
   <feGaussianBlur stdDeviation="19.663833"/>
  </filter>
  <filter id="ev" x="-1.272" y="-1.3112" width="3.544" height="3.6224">
   <feGaussianBlur stdDeviation="4.3398207"/>
  </filter>
  <filter id="ew" x="-.63083" y="-1.2848" width="2.2617" height="3.5696">
   <feGaussianBlur stdDeviation="19.663833"/>
  </filter>
  <filter id="ex" x="-.57555" y="-1.7574" width="2.1511" height="4.5147">
   <feGaussianBlur stdDeviation="19.663833"/>
  </filter>
  <filter id="ey" x="-.70653" y="-1.4906" width="2.4131" height="3.9812">
   <feGaussianBlur stdDeviation="19.663833"/>
  </filter>
  <filter id="ez" x="-.64017" y="-1.2723" width="2.2803" height="3.5445">
   <feGaussianBlur stdDeviation="4.6323784"/>
  </filter>
  <filter id="fa" x="-1.272" y="-1.3112" width="3.544" height="3.6224">
   <feGaussianBlur stdDeviation="4.3398207"/>
  </filter>
  <filter id="fb" x="-1.9319" y="-3.9787" width="4.8637" height="8.9574">
   <feGaussianBlur stdDeviation="19.663833"/>
  </filter>
  <filter id="fc" x="-.92042" y="-1.7262" width="2.8408" height="4.4524">
   <feGaussianBlur stdDeviation="4.1156438"/>
  </filter>
  <filter id="fd" x="-.53013" y="-.56916" width="2.0603" height="2.1383">
   <feGaussianBlur stdDeviation="4.6323784"/>
  </filter>
  <filter id="cj" x="-.283" y="-.3396" width="1.566" height="1.6792">
   <feGaussianBlur stdDeviation="4.6323784"/>
  </filter>
  <filter id="ck" x="-.33877" y="-.10789" width="1.6775" height="1.2158">
   <feGaussianBlur stdDeviation="4.6323784"/>
  </filter>
  <filter id="cl" x="-.1474" y="-.33896" width="1.2948" height="1.6779">
   <feGaussianBlur stdDeviation="4.6249481"/>
  </filter>
  <filter id="cm" x="-.22724" y="-.4747" width="1.4545" height="1.9494">
   <feGaussianBlur stdDeviation="19.663833"/>
  </filter>
  <filter id="cn" x="-.56762" y="-.16272" width="2.1352" height="1.3254">
   <feGaussianBlur stdDeviation="3.1521316"/>
  </filter>
  <filter id="co">
   <feGaussianBlur stdDeviation="22.689038"/>
  </filter>
  <linearGradient id="cp" x1="-614.17" x2="-628.31" y1="166.96" y2="190.2" gradientTransform="matrix(4.2449 0 0 4.2449 3509.9 -1097.3)" gradientUnits="userSpaceOnUse">
   <stop stop-color="#f7b695" offset="0"/>
   <stop stop-color="#fad4c0" offset="1"/>
  </linearGradient>
  <linearGradient id="cf" x1="-573.01" x2="-672.49" y1="69.736" y2="103.07" gradientTransform="matrix(.72221 -.35054 -.26904 -.92804 -150.17 -73.113)" gradientUnits="userSpaceOnUse" xlink:href="#cd"/>
  <linearGradient id="cq" x1="-573.01" x2="-664.65" y1="69.736" y2="98.809" gradientTransform="matrix(.95526 .033692 -.032203 .99943 999.31 238.75)" gradientUnits="userSpaceOnUse" xlink:href="#cd"/>
  <linearGradient id="cr" x1="-572.52" x2="-672.22" y1="67.587" y2="99.693" gradientTransform="matrix(.93214 .068976 -.064449 .99762 -39.472 38.58)" gradientUnits="userSpaceOnUse" xlink:href="#cd"/>
  <linearGradient id="cs" x1="-573.01" x2="-653.47" y1="69.736" y2="93.616" gradientTransform="matrix(.77407 -.48281 -.49167 -.86079 927.08 59.834)" gradientUnits="userSpaceOnUse" xlink:href="#cd"/>
  <linearGradient id="ct" x1="-595.48" x2="-623.77" y1="278.59" y2="278.84" gradientTransform="translate(1040 68.01)" gradientUnits="userSpaceOnUse" xlink:href="#ch"/>
  <linearGradient id="cu" x1="-595.48" x2="-623.77" y1="278.59" y2="278.84" gradientTransform="translate(-38.891 -.75761)" gradientUnits="userSpaceOnUse" xlink:href="#ch"/>
  <linearGradient id="cv" x1="-624.84" x2="-649.65" y1="280.98" y2="279.6" gradientTransform="matrix(5.0494 .13981 -.13963 5.0559 4111.3 -1829.1)" gradientUnits="userSpaceOnUse">
   <stop stop-color="#c83737" offset="0"/>
   <stop stop-color="#c83737" stop-opacity=".60784" offset=".2916"/>
   <stop stop-color="#c83737" stop-opacity=".46667" offset=".49464"/>
   <stop stop-color="#c83737" stop-opacity=".58824" offset=".68579"/>
   <stop stop-color="#c83737" offset="1"/>
  </linearGradient>
  <linearGradient id="cw" x1="-574.08" x2="-578.82" y1="157.24" y2="158.69" gradientTransform="matrix(7.1356 .47103 -.34207 5.527 5055 -1103.3)" gradientUnits="userSpaceOnUse" xlink:href="#cg"/>
  <linearGradient id="ci" x1="-616.12" x2="-628.42" y1="258.58" y2="268.22" gradientUnits="userSpaceOnUse">
   <stop stop-color="#216778" offset="0"/>
   <stop stop-color="#216778" stop-opacity="0" offset="1"/>
  </linearGradient>
  <linearGradient id="cx" x1="-574.08" x2="-578.82" y1="157.24" y2="158.69" gradientTransform="matrix(-7.1383 -.42797 -.35409 5.5263 -3236.8 -1626.6)" gradientUnits="userSpaceOnUse" xlink:href="#cg"/>
  <linearGradient id="cy" x1="-564.55" x2="-563.84" y1="168.17" y2="157.43" gradientTransform="translate(-60.172 -29.597)" gradientUnits="userSpaceOnUse">
   <stop stop-color="#a05a2c" offset="0"/>
   <stop stop-color="#fad4c0" offset="1"/>
  </linearGradient>
  <linearGradient id="cz" x1="39.648" x2="14.142" y1="-388.87" y2="-415.14" gradientTransform="translate(414.29 857.14)" gradientUnits="userSpaceOnUse">
   <stop stop-color="#524e6b" offset="0"/>
   <stop stop-color="#524e6b" stop-opacity="0" offset="1"/>
  </linearGradient>
  <linearGradient id="da" x1="32.83" x2="-7.5761" y1="-353.01" y2="-349.48" gradientTransform="translate(414.29 857.14)" gradientUnits="userSpaceOnUse">
   <stop stop-color="#524e6b" offset="0"/>
   <stop stop-color="#524e6b" stop-opacity="0" offset="1"/>
  </linearGradient>
  <linearGradient id="db" x1="-119.71" x2="-111.39" y1="-311.34" y2="-356.8" gradientTransform="translate(91.166 -39.901)" gradientUnits="userSpaceOnUse">
   <stop stop-color="#524e6b" offset="0"/>
   <stop stop-color="#524e6b" stop-opacity="0" offset="1"/>
  </linearGradient>
 </defs>
 <g transform="translate(0 947.64)">
  <g transform="matrix(.91251 0 0 .91251 1.8563 1.2031)">
   <g transform="translate(-1458.7 4.0406)" fill="#808080" filter="url(#co)">
    <path d="m1895.1 335.62c22.492 9.2891 46.255 5.9547 61.712 24.983-15.651 28.267-48.366 41.453-69.863 71.182l-38.794 21.969c-14.19 8.8158-24.348 19.762-35.193 30.345l11.862 23.618s-4.4692 21.203-6.4361 17.574l-19.669-36.288-10.54-0.39027 4.3818 37.533-11.604 28.826-7.4542-46.666-11.631 39.17-16.779 17.547 15.761-81.786-7.1958 5.7788-18.136 32.367s-25.671 16.733-22.829 13.314c2.8417-3.4185 34.456-63.751 34.456-63.751 27.88-25.187 47.192-52.176 82.517-76.643z" filter="url(#dp)"/>
    <path d="m1829.7 393.65c-29.373 23.354-54.517 50.666-81.63 76.135l-35.392 66.992 21.466-14.292 18.722-34.052 45.157-24.479" filter="url(#dq)" stroke="#6a3527" stroke-width="1.0959px"/>
    <path d="m1761.5 483.42-17.64 81.58 17.188-17.285 11.279-37.985 13.013-18.925" filter="url(#dr)" stroke="#6a3527" stroke-width="1.0959px"/>
    <path d="m1774.7 507.18 6.4504 48.227 12.565-30.714-5.3141-34.302" filter="url(#ds)" stroke="#6a3527" stroke-width="1.0959px"/>
    <path d="m1826.8 441.91-43.474 47.98s25.827-0.85411 30.059-6.9042c4.2321-6.0502 25.759-25.231 34.467-29.952 8.7085-4.7207 34.158-16.289 38.447-21.311 11.201-13.114 70.454-72.026 70.454-72.026-17.291-20.231-35.53-17.525-60.372-26.185l-66.375 60.18" filter="url(#dt)" stroke="#6a3527" stroke-width="1.0959px"/>
    <path d="m1798.2 488.84 21.151 36.424 5.1204-18.269-11.137-24.011" filter="url(#du)" stroke="#6a3527" stroke-width="1.0959px"/>
    <path d="m2498.2 376.88s16.521 105.72 12.864 158.65c-11.4 164.34-107.3 482.37-107.3 482.37l-373.7-5.5439s-36.964-380.84-33.568-463.98c4.3055-105.4 17.152-206.84 42.88-197.25 24.438 9.1138 458.81 25.728 458.81 25.728z" filter="url(#dv)" stroke="#4f4a66" stroke-width="1.0959px"/>
    <path d="m2103.6-330.35-126 398.76c-55.503 105.98-123.35 267.13-145.33 303.25 37.416 31.963 93.542 44.435 126.05 59.171 0 0 109.39-246.77 119.53-274.53 26.736-73.201 133.12-409.66 133.12-409.66z" filter="url(#dw)" stroke="#4f4a66" stroke-width="1.0959px"/>
    <path d="m2417.1-835.54c194.27 34.927 109.49 257.91 85.616 371.98-26.984 132.12 20.644 115.78 20.644 115.78l-357.82 21.44s39.016-21.32 15.318-110.49c-27.889-104.94-123.14-357.9 101.66-410.5 74.665-7.3677 134.58 11.792 134.58 11.792z" filter="url(#dx)"/>
    <path d="m2386.7-469.99s-6.4319 32.16 6.432 47.168 92.191 38.592 92.191 38.592l-2.144 173.66-310.9 140.51 57.914-273.44 9.1659-16.681c15.779-25.132 16.588-64.545 18.706-102.31z" filter="url(#dy)"/>
    <path d="m2201-235.11c9.2316 0 147.7 9.2316 147.7 9.2316l-161.5 226.17z" filter="url(#dz)"/>
    <path d="m2460.5-649.14c1.7254 45.349-2.7811 87.011-19.982 125.61-15.603 35.016-38.627 71.357-72.194 88.745-22.414 11.61-51.605 13.413-75.236 4.6843-29.526-10.906-53.195-37.99-68.652-65.934-20.155-36.436-27.356-81.438-25.941-122.75 1.4723-42.975 33.892-123.83 33.892-123.83l208.66 5.9822s18.485 61.983 19.455 87.493z" filter="url(#ea)"/>
    <path d="m2421.4-411.09s-225.02 362.91-225.02 349.07c0-13.847 44.211-313.11 44.211-313.11s-122.23 32.075-134.22 45.396c-17.921 19.908-32.901 162.63-41.542 242.33-5.2954 48.846 37.997 84.235 39.726 141.94 3.1604 105.51-90.499 303.48-90.499 303.48s102.05 60.804 159.24 71.544c74.192 13.933 152.93 6.7258 226.17-11.539 38.736-9.6594 108.47-50.773 108.47-50.773s-18.384-40.666-23.079-62.313c-12.937-59.644-21.698-122.17-13.258-182.61 10.648-76.251 79.191-216.97 79.191-216.97 54.906 72.755 77.746 103.7 139.47 154.94l-173.1 166.16s64.621 124.63 78.468 110.78c13.847-13.847 248.05-234.63 241.7-288.41-6.3513-53.777-207.85-305.69-244.35-368.89-36.498-63.201-171.59-91.03-171.59-91.03z" filter="url(#eb)" stroke="#4f4a66" stroke-width="1.1797px"/>
    <path transform="matrix(4.2449 0 0 4.2449 609.8 -2005.7)" d="m426.49 377.78c2.107 1.2136 14.447 3.8752 18.424 6.1223 4.065 2.2968-4.3944 34.746-7.2835 32.942-2.889-1.8043-18.1-11.688-18.1-11.688l10.789 15.614s-55.186 37.385-53.972 35.278c1.2136-2.107 31.53-47.222 31.53-47.222 6.4267-10.051 12.767-20.562 18.613-31.046z" filter="url(#ec)"/>
    <path d="m2419.8-411.92c8.9438 5.1514 61.327 16.45 78.209 25.988 17.255 9.7495-18.654 147.49-30.917 139.83-12.264-7.6591-76.834-49.614-76.834-49.614l45.796 66.279s-243.35 176.13-238.2 167.18c5.1513-8.9437 142.94-217.89 142.94-217.89 27.28-42.666 54.196-87.282 79.011-131.78z" filter="url(#ed)" stroke="#4f4a66" stroke-width="1.0959"/>
    <path transform="matrix(.54367 -5.2729 7.3101 .68093 2054.2 -3969.9)" d="m-597.55 63.064s-19.719-3.3506-29.602-2.1514c-10.803 1.3109-31.588 10.112-31.588 10.112s21.321-3.3528 31.574-4.0427c9.0841-0.61119 32.781 1.1267 32.781 1.1267z" filter="url(#ee)"/>
    <path d="m2476.5-809.66s12.789 51.421-57.572 90.274c-95.318 52.634-216.29 49.966-216.29 49.966l-69.144 1.504 3.7277-0.68147c13.156-121.77 63.714-181.55 149.73-207.65 95.725-29.294 204.78 56.195 189.55 66.582z" filter="url(#ef)"/>
    <path d="m2245.5-382.51c-10.289-0.80979-74.205 22.386-90.49 29.801-18.037 8.2128-24.825 79.127-10.379 79.746 14.446 0.61941 67.169-0.49555 67.169-0.49555l-75.253 28.76s59.682 198.17 60.492 187.88c32.207-120.54 25.46-227.85 48.461-325.7z" filter="url(#eg)" stroke="#4f4a66" stroke-width="1.1797px"/>
    <path d="m2247.5-384.53c-10.289-0.80979-74.205 22.386-90.49 29.801-18.037 8.2128-24.825 79.127-10.379 79.746 14.446 0.61941 67.169-0.49555 67.169-0.49555l-75.253 28.76s59.682 198.17 60.492 187.88c32.207-120.54 25.46-227.85 48.461-325.7z" filter="url(#eh)" stroke="#4f4a66" stroke-width="1.1797px"/>
    <path d="m2199.8-58.835c8.5759 52.528 13.241 118.4 8.9529 161.28-14.994 109.15-38.722 216.7-64.32 323.74" filter="url(#ei)" stroke="#4f4a66" stroke-width="1.0959px"/>
    <path transform="matrix(4.2449 0 0 4.2449 609.8 -2005.7)" d="m435.61 294.52s-23.142 10.686-35.438 13.739c-13.724 3.4074-42.133 4.9462-42.133 4.9462s25.105-5.6044 37.357-9.2241c10.854-3.2069 39.358-16.361 39.358-16.361z" filter="url(#ej)"/>
    <path transform="matrix(4.2449 0 0 4.8218 4976.7 -1142.7)" d="m-595.26 74.121s-21.511 9.0696-32.852 11.532c-13.186 2.8629-40.315 3.6384-40.315 3.6384s26.732-4.9255 38.821-8.0902c10.71-2.8037 36.674-13.139 36.674-13.139z" filter="url(#ek)"/>
    <path transform="matrix(4.2449 0 0 4.2449 609.8 -2005.7)" d="m432.02 279.32s-23.617 0.48005-34.9 3.5502c-12.334 3.3562-34.858 15.985-34.858 15.985s24.964-5.4148 36.777-8.0553c10.466-2.3393 37.637-7.127 37.637-7.127z" filter="url(#el)"/>
    <path transform="matrix(4.2449 0 0 5.5935 4966.1 -1195.1)" d="m-597.55 63.064s-19.719-3.3506-29.602-2.1514c-10.803 1.3109-31.588 10.112-31.588 10.112s21.321-3.3528 31.574-4.0427c9.0841-0.61119 32.781 1.1267 32.781 1.1267z" filter="url(#em)"/>
    <path transform="matrix(4.2449 0 0 4.2449 609.8 -2005.7)" d="m434.63 338.81s-2.0917 9.1068-3.8112 12.08c-1.7194 2.9736-6.0575 10.031-6.7707 8.0741-0.71312-1.9566-4.6739-9.3249-2.6786-13.431 2.1661-4.4574 13.26-6.7236 13.26-6.7236z" filter="url(#en)"/>
    <path transform="matrix(-4.2449 0 0 4.2449 -540.26 -1733.1)" d="m-644.26 270.04s-2.0917 9.1068-3.8111 12.08c-1.7194 2.9736-6.0575 10.031-6.7707 8.0741-0.71312-1.9566-4.6739-9.3249-2.6786-13.431 2.1661-4.4574 13.26-6.7236 13.26-6.7236z" filter="url(#eo)" opacity=".97788"/>
    <path d="m2321.7-514.5 13.158-2.83 43.322 13.977c-8.769 11.838-16.626 18.756-27.802 24.786-7.4067 4.6862-17.903 7.5075-27.318 7.2296-11.531-0.33917-24.37-4.367-32.881-10.813-11.46-8.5827-18.38-17.2-25.95-30.746l46.445-6.7z" filter="url(#ep)"/>
    <path d="m2279.6-507.94c4.1786 0.11589 37.655 3.6858 42.138 4.1374 4.9818 0.50221 42.011 2.3801 42.011 2.3801s-28.017 11.703-42.473 10.64c-14.801-1.0883-41.676-17.157-41.676-17.157z" filter="url(#eq)"/>
    <path d="m2364.6-501.35-25.511 8.5945 0.3757-10.954z" filter="url(#er)"/>
    <path transform="matrix(5.0506 0 0 3.3776 5545.3 -1474.3)" d="m-642.33 290.96c1.5152 0.3788 3.283 1.7678 5.177 1.6415 1.894-0.12626 3.5355 0 3.5355 0s-0.75761 1.389-1.7678 1.389-5.3033-0.25253-5.9346-1.0102c-0.63135-0.75761-3.0305-2.2728-2.5254-2.2728 0.50507 0 1.5152 0.25254 1.5152 0.25254z" filter="url(#es)" opacity=".82692"/>
    <path d="m2352.2-649.63c11.173-2.8597 48.638-14.135 58.268-13.232 8.1949 0.78016 33.46 15.081 33.46 15.081l-32.075-9.4134c-14.557 0.57085-42.533 11.673-59.399 16.798z" filter="url(#et)" stroke="#000" stroke-width=".12719"/>
    <path d="m2358.4-603.58s12.126-20.059 32.582-20.55c17.222-0.41345 34.92 14.277 34.92 14.277s-13.863 14.872-33.674 16.804c-18.736 1.827-33.827-10.531-33.827-10.531z" filter="url(#eu)"/>
    <g transform="matrix(4.5275 .17888 -.17888 4.5275 5243.9 -1681.8)" filter="url(#ev)">
     <path transform="matrix(1.067 -.17492 .16953 1.0341 -2.3994 -117.54)" d="m-615.56 261.67c0 2.0921-1.696 3.7881-3.7881 3.7881s-3.7881-1.696-3.7881-3.7881 1.696-3.7881 3.7881-3.7881 3.7881 1.696 3.7881 3.7881z" opacity=".82743"/>
     <path transform="matrix(1.0432 -.1193 .1193 1.0432 -4.0607 -86.005)" d="m-617.41 262.18c0 0.98623-0.79949 1.7857-1.7857 1.7857-0.98622 0-1.7857-0.79949-1.7857-1.7857 0-0.98622 0.7995-1.7857 1.7857-1.7857 0.98622 0 1.7857 0.79949 1.7857 1.7857z" opacity=".64159"/>
     <path transform="matrix(1.2092 -.13828 .13828 1.2092 94.75 -139.49)" d="m-617.41 260.53c0 0.41914-0.33978 0.75893-0.75893 0.75893-0.41914 0-0.75893-0.33979-0.75893-0.75893s0.33979-0.75893 0.75893-0.75893c0.41915 0 0.75893 0.33979 0.75893 0.75893z" filter="url(#cc)" opacity=".82743"/>
    </g>
    <path d="m2358.2-603.23s10.716-17.033 27.572-20.089c11.676-2.117 21.786 3.2492 31.662 7.7875 4.8985 2.251 8.0897 5.0383 8.0897 5.0383s-3.081 4.0622-6.6486 6.4362c-2.9686 1.9753-6.1888 4.4131-11.713 6.8894-5.5554 2.4902-17.593 4.9035-17.593 4.9035 0.1439 0.49555 12.464-0.0964 17.754-2.2624 7.4629-3.0551 10.579-4.7102 16.856-9.9259 4.6389-3.8541 7.6798-9.0122 8.8307-9.6545 0 0-15.043-11.716-33.609-14.466-3.0271-0.44843-12.454-0.52178-19.242 1.5145-4.3302 1.2996-10.593 5.8553-14.121 9.422-7.1634 7.2414-7.8382 14.406-7.8382 14.406z" filter="url(#ew)"/>
    <path d="m2294.5-653.29c-10.577-4.5978-36.916-19.487-46.566-20.125-8.2148-0.5312-35.431 9.5753-35.431 9.5753l33.163-4.2c14.282 2.8754 30.892 13.721 46.73 21.459z" filter="url(#ex)" stroke="#000" stroke-width=".12719"/>
    <path d="m2293.2-611.56s-10.505-20.953-30.859-23.056c-17.136-1.771-35.938 11.478-35.938 11.478s12.646 15.919 32.244 19.408c18.533 3.2994 34.552-7.8297 34.552-7.8297z" filter="url(#ey)"/>
    <g transform="matrix(-4.2416 -.16759 -.16759 4.2416 -328.65 -1834.1)" filter="url(#ez)">
     <path d="m-628.57 263.47s2.3642-4.1092 6.3035-4.9854c2.7288-0.60692 5.1587 0.56221 7.5256 1.5386 1.174 0.48432 1.9511 1.1107 1.9511 1.1107s-0.68747 0.98488-1.5052 1.5769c-0.68041 0.49259-1.4158 1.0964-2.6932 1.7307-1.2846 0.63784-4.0958 1.3179-4.0958 1.3179 0.0385 0.11531 2.933-0.13863 4.1583-0.69769 1.7283-0.78856 2.4463-1.2071 3.8756-2.4933 1.0561-0.95038 1.724-2.1928 1.9889-2.3548 0 0-3.65-2.6181-8.0459-3.0925-0.71675-0.0774-2.9364-7e-3 -4.5154 0.53547-1.0072 0.3462-2.4391 1.4768-3.2365 2.3492-1.6189 1.7712-1.7111 3.4641-1.7111 3.4641z" fill="#808080"/>
    </g>
    <g transform="matrix(4.5275 .17888 -.17888 4.5275 5108.2 -1694.2)" filter="url(#fa)">
     <path transform="matrix(1.067 -.17492 .16953 1.0341 -2.3994 -117.54)" d="m-615.56 261.67c0 2.0921-1.696 3.7881-3.7881 3.7881s-3.7881-1.696-3.7881-3.7881 1.696-3.7881 3.7881-3.7881 3.7881 1.696 3.7881 3.7881z" opacity=".82743"/>
     <path transform="matrix(1.0432 -.1193 .1193 1.0432 -4.0607 -86.005)" d="m-617.41 262.18c0 0.98623-0.79949 1.7857-1.7857 1.7857-0.98622 0-1.7857-0.79949-1.7857-1.7857 0-0.98622 0.7995-1.7857 1.7857-1.7857 0.98622 0 1.7857 0.79949 1.7857 1.7857z" opacity=".64159"/>
     <path transform="matrix(1.2092 -.13828 .13828 1.2092 94.75 -139.49)" d="m-617.41 260.53c0 0.41914-0.33978 0.75893-0.75893 0.75893-0.41914 0-0.75893-0.33979-0.75893-0.75893s0.33979-0.75893 0.75893-0.75893c0.41915 0 0.75893 0.33979 0.75893 0.75893z" filter="url(#cc)" opacity=".82743"/>
    </g>
    <path d="m2279.3-507.97c8.0652 4.7998 15.85 8.4796 23.561 11.861l0.8678-9.7087z" filter="url(#fb)"/>
    <path transform="matrix(4.2991 0 0 5.3099 5010.8 -1238.4)" d="m-628.35 126.43 8.2857 0.71354s1.3615 2.365 0.68059 3.3552c-0.86661 1.2603-3.1577 1.6602-4.9393 1.6532-1.9862-8e-3 -5.0822-0.79344-5.4846-1.8858-0.62501-1.6964 1.4576-3.8362 1.4576-3.8362z" filter="url(#fc)" opacity=".53097"/>
    <path transform="matrix(4.2449 0 0 4.2449 609.8 -2005.7)" d="m410.03 321.72-2.2982 11.229 0.25254 6.8185 3.0585-10.305c4.1191-4.5247 8.2721-6.012 10.157-5.4052 3.3845 1.0893 8.0269 3.927 7.4553 2.6466-0.74986-1.6796-8.9606-7.9923-12.842-6.1289z" filter="url(#fd)"/>
    <path transform="matrix(4.2449 0 0 4.2449 609.8 -2005.7)" d="m456.79 450.58-12.63 26.31-26.66-9.17 30.71-23.57z" filter="url(#cj)"/>
    <path transform="matrix(4.2449 0 0 4.2449 609.8 -2005.7)" d="m445.12 474.03c-10.735 30.797-11.136 47.297 2.3021 85.241l-26.582 11.244c-7.4869-26.442-7.2688-64.019-4.347-103.05z" filter="url(#ck)"/>
    <path transform="matrix(4.2585 0 0 4.2449 2369.4 1632.7)" d="m5.73-392.71-0.19126 23.943c-13.715-0.1414-29.597 0.45071-42.014-2.9005-7.6426-1.3675-15.258-2.9203-25.652-7.518 0 0-6.7602-18.633-7.4339-21.819-0.61422-2.9041 17.447 7.3909 30.909 11.126 10.784 0.65373 27.946-0.62368 44.382-2.8324z" filter="url(#cl)"/>
    <path d="m2506.8 307.15c-15.822 2.5777-29.892-12.388-42.372-13.46-15.105-1.2974-47.977 13.812-61.085 13.996-13.976 0.19611-14.716-5.9721-14.716-5.9721l41.561-21.224 29.156-8.5602s-26.251-1.2485-38.972 1.4241c-13.806 2.9004-28.728 15.068-39.34 15.604-10.599 0.53532-21.836-5.084-21.836-5.084l45.389-26.66 37.732-7.5802s-26.824-2.9353-39.417-2.496c-13.582 0.47377-25.588 9.3562-39.861 8.5601-12.933-0.72142-17.58-5.62-17.58-5.62l45.313-18.1 29.592-1.8658s-9.0137-3.9667-13.825-4.7162c-10.513-1.6377-20.856 2.496-31.913 0.62798-12.772-2.158-16.952-8.7441-16.952-8.7441l52.617-9.0042c26.783 13.139 69.702 18.772 89.635 25.846 9.0917 3.2267 18.717-2.7449 18.717-2.7449l34.496 60.569c-22.176 15.884-26.103 11.578-46.337 15.205z" filter="url(#cm)" stroke="#6b3627" stroke-width="1.0959"/>
    <path transform="matrix(-.54367 -5.2729 -7.3101 .68093 2627.1 -3985)" d="m-597.55 63.064s-19.719-3.3506-29.602-2.1514c-10.803 1.3109-31.588 10.112-31.588 10.112s21.321-3.3528 31.574-4.0427c9.0841-0.61119 32.781 1.1267 32.781 1.1267z" filter="url(#cn)"/>
   </g>
   <path d="m428.4 335.62c22.492 9.2891 46.255 5.9547 61.712 24.983-15.651 28.267-48.366 41.453-69.863 71.182l-38.794 21.969c-14.19 8.8158-24.348 19.762-35.193 30.345l11.862 23.618s-4.4692 21.203-6.4361 17.574l-19.669-36.288-10.54-0.39027 4.3818 37.533-11.604 28.826-7.4543-46.666-11.631 39.17-16.779 17.547 15.761-81.786-7.1959 5.7788-18.135 32.367s-25.671 16.733-22.829 13.314c2.8417-3.4185 34.457-63.751 34.457-63.751 27.88-25.187 47.192-52.176 82.517-76.643z" fill="#fad4c0"/>
   <path d="m362.94 393.65c-29.373 23.354-54.517 50.666-81.63 76.135l-35.392 66.992 21.466-14.292 18.722-34.052 45.157-24.479" fill="none" stroke="#6a3527" stroke-width="1.0959px"/>
   <path d="m294.78 483.42-17.64 81.58 17.188-17.285 11.279-37.985 13.013-18.925" fill="none" stroke="#6a3527" stroke-width="1.0959px"/>
   <path d="m307.99 507.18 6.4504 48.227 12.565-30.714-5.3141-34.302" fill="none" stroke="#6a3527" stroke-width="1.0959px"/>
   <path d="m360.01 441.91-43.474 47.98s25.827-0.85411 30.059-6.9042c4.232-6.0502 25.759-25.231 34.467-29.952 8.7084-4.7207 34.158-16.289 38.447-21.311 11.201-13.114 70.454-72.026 70.454-72.026-17.291-20.231-35.53-17.525-60.372-26.185l-66.375 60.18" fill="none" stroke="#6a3527" stroke-width="1.0959px"/>
   <path d="m331.46 488.84 21.151 36.424 5.1204-18.269-11.137-24.011" fill="none" stroke="#6a3527" stroke-width="1.0959px"/>
   <path d="m1031.5 376.88s16.521 105.72 12.864 158.65c-11.4 164.34-107.33 482.37-107.33 482.37l-373.7-5.5439s-36.964-380.84-33.568-463.98c4.3055-105.4 17.152-206.84 42.88-197.25 24.439 9.1138 458.81 25.728 458.81 25.728z" fill="#5f5a7c" stroke="#4f4a66" stroke-width="1.0959px"/>
   <path d="m636.82-330.35-125.97 398.76c-55.51 105.97-123.35 267.12-145.34 303.24 37.416 31.963 93.542 44.435 126.05 59.171 0 0 109.39-246.77 119.53-274.53 26.736-73.201 133.12-409.66 133.12-409.66z" fill="#5f5a7c" stroke="#4f4a66" stroke-width="1.0959px"/>
   <path d="m950.34-835.54c194.27 34.927 109.49 257.91 85.616 371.98-26.984 132.12 20.644 115.78 20.644 115.78l-357.82 21.44s39.016-21.32 15.318-110.49c-27.889-104.94-123.14-357.9 101.66-410.5 74.665-7.3677 134.58 11.792 134.58 11.792z" fill="#6a3527"/>
   <path d="m920-469.99s-6.432 32.16 6.432 47.168 92.191 38.592 92.191 38.592l-2.144 173.66-310.9 140.51 57.914-273.44 9.1658-16.681c15.779-25.132 16.588-64.545 18.706-102.31z" fill="url(#cp)"/>
   <path d="m734.27-235.11c9.2316 0 147.7 9.2316 147.7 9.2316l-161.55 226.17z" fill="#fff"/>
   <path d="m993.74-649.14c1.7254 45.349-2.7811 87.011-19.982 125.61-15.603 35.016-38.627 71.357-72.194 88.745-22.414 11.61-51.605 13.413-75.236 4.6843-29.526-10.906-53.195-37.99-68.652-65.934-20.155-36.436-27.357-81.438-25.941-122.75 1.4723-42.975 33.893-123.83 33.893-123.83l208.66 5.9822s18.485 61.983 19.455 87.493z" fill="#fad4c0"/>
   <path d="m954.67-411.09s-225.02 362.91-225.02 349.07c0-13.847 44.211-313.11 44.211-313.11s-122.23 32.075-134.22 45.396c-17.921 19.908-32.901 162.63-41.542 242.33-5.2954 48.846 37.997 84.235 39.726 141.94 3.1604 105.51-90.499 303.48-90.499 303.48s102.05 60.804 159.24 71.544c74.192 13.933 152.93 6.7258 226.17-11.539 38.736-9.6594 108.47-50.773 108.47-50.773s-18.384-40.666-23.079-62.313c-12.937-59.644-21.698-122.17-13.258-182.61 10.648-76.251 79.191-216.97 79.191-216.97 54.906 72.755 77.746 103.7 139.47 154.94l-173.1 166.16s64.621 124.63 78.468 110.78c13.847-13.847 248.05-234.63 241.7-288.41-6.3513-53.777-207.85-305.69-244.35-368.89-36.498-63.201-171.59-91.03-171.59-91.03z" fill="#6d678d" stroke="#4f4a66" stroke-width="1.1797px"/>
   <path transform="matrix(4.2449 0 0 4.2449 -856.94 -2005.7)" d="m426.49 377.78c2.107 1.2136 14.447 3.8752 18.424 6.1223 4.065 2.2968-4.3944 34.746-7.2835 32.942-2.889-1.8043-18.1-11.688-18.1-11.688l10.789 15.614s-55.186 37.385-53.972 35.278c1.2136-2.107 31.53-47.222 31.53-47.222 6.4267-10.051 12.767-20.562 18.613-31.046z" fill="#343343" filter="url(#dd)"/>
   <path d="m953.08-411.92c8.9438 5.1514 61.327 16.45 78.209 25.988 17.255 9.7495-18.654 147.49-30.917 139.83-12.264-7.6591-76.834-49.614-76.834-49.614l45.796 66.279s-243.35 176.13-238.2 167.18c5.1514-8.9437 142.94-217.89 142.94-217.89 27.28-42.666 54.196-87.282 79.011-131.78z" fill="#5f5a7c" stroke="#4f4a66" stroke-width="1.0959"/>
   <path transform="matrix(.54367 -5.2729 7.3101 .68093 587.48 -3969.9)" d="m-597.55 63.064s-19.719-3.3506-29.602-2.1514c-10.803 1.3109-31.588 10.112-31.588 10.112s21.321-3.3528 31.574-4.0427c9.0841-0.61119 32.781 1.1267 32.781 1.1267z" fill="url(#cf)" filter="url(#ce)"/>
   <path d="m1009.8-809.66s12.789 51.421-57.572 90.274c-95.318 52.634-216.29 49.966-216.29 49.966l-69.144 1.504 3.7277-0.68147c13.156-121.77 63.714-181.55 149.73-207.65 95.725-29.294 204.78 56.195 189.55 66.582z" fill="#6a3527"/>
   <path d="m778.78-382.51c-10.289-0.80979-74.205 22.386-90.49 29.801-18.037 8.2128-24.825 79.127-10.379 79.746 14.446 0.61941 67.169-0.49555 67.169-0.49555l-75.253 28.76s59.682 198.17 60.492 187.88c32.207-120.54 25.46-227.85 48.461-325.7z" fill="#333" filter="url(#dm)" stroke="#4f4a66" stroke-width="1.1797px"/>
   <path d="m780.8-384.53c-10.289-0.80979-74.205 22.386-90.49 29.801-18.037 8.2128-24.825 79.127-10.379 79.746 14.446 0.61941 67.169-0.49555 67.169-0.49555l-75.253 28.76s59.682 198.17 60.492 187.88c32.207-120.54 25.46-227.85 48.461-325.7z" fill="#5f5a7c" stroke="#4f4a66" stroke-width="1.1797px"/>
   <path d="m733.1-58.835c8.576 52.528 13.241 118.4 8.9529 161.28-14.994 109.15-38.722 216.7-64.319 323.74" fill="none" stroke="#4f4a66" stroke-width="1.0959px"/>
   <path transform="matrix(4.2449 0 0 4.2449 -856.94 -2005.7)" d="m435.61 294.52s-23.142 10.686-35.438 13.739c-13.724 3.4074-42.133 4.9462-42.133 4.9462s25.105-5.6044 37.357-9.2241c10.854-3.2069 39.358-16.361 39.358-16.361z" fill="url(#cq)" filter="url(#di)"/>
   <path transform="matrix(4.2449 0 0 4.8218 3509.9 -1142.7)" d="m-595.26 74.121s-21.511 9.0696-32.852 11.532c-13.186 2.8629-40.315 3.6384-40.315 3.6384s26.732-4.9255 38.821-8.0902c10.71-2.8037 36.674-13.139 36.674-13.139z" fill="url(#cr)" filter="url(#dh)"/>
   <path transform="matrix(4.2449 0 0 4.2449 -856.94 -2005.7)" d="m432.02 279.32s-23.617 0.48005-34.9 3.5502c-12.334 3.3562-34.858 15.985-34.858 15.985s24.964-5.4148 36.777-8.0553c10.466-2.3393 37.637-7.127 37.637-7.127z" fill="url(#cs)" filter="url(#dg)"/>
   <path transform="matrix(4.2449 0 0 5.5935 3499.3 -1195.1)" d="m-597.55 63.064s-19.719-3.3506-29.602-2.1514c-10.803 1.3109-31.588 10.112-31.588 10.112s21.321-3.3528 31.574-4.0427c9.0841-0.61119 32.781 1.1267 32.781 1.1267z" fill="url(#cf)" filter="url(#ce)"/>
   <path transform="matrix(4.2449 0 0 4.2449 -856.94 -2005.7)" d="m434.63 338.81s-2.0917 9.1068-3.8112 12.08c-1.7194 2.9736-6.0575 10.031-6.7707 8.0741-0.71312-1.9566-4.6739-9.3249-2.6786-13.431 2.1661-4.4574 13.26-6.7236 13.26-6.7236z" fill="url(#ct)" filter="url(#dj)"/>
   <path transform="matrix(-4.2449 0 0 4.2449 -2007 -1733.1)" d="m-644.26 270.04s-2.0917 9.1068-3.8111 12.08c-1.7194 2.9736-6.0575 10.031-6.7707 8.0741-0.71312-1.9566-4.6739-9.3249-2.6786-13.431 2.1661-4.4574 13.26-6.7236 13.26-6.7236z" fill="url(#cu)" filter="url(#dk)" opacity=".97788"/>
   <path d="m854.98-514.5 13.159-2.83 43.322 13.977c-8.769 11.838-16.626 18.756-27.802 24.786-7.4066 4.6862-17.903 7.5075-27.318 7.2296-11.531-0.33917-24.37-4.367-32.881-10.813-11.46-8.5827-18.38-17.2-25.95-30.746l46.445-6.7z" fill="url(#cv)"/>
   <path d="m812.86-507.94c4.1786 0.11589 37.655 3.6858 42.138 4.1374 4.9818 0.50221 42.011 2.3801 42.011 2.3801s-28.017 11.703-42.473 10.64c-14.801-1.0883-41.676-17.157-41.676-17.157z" fill="#fff"/>
   <path d="m897.85-501.35-25.511 8.5945 0.37567-10.954z" fill="url(#cw)"/>
   <path transform="matrix(5.0506 0 0 3.3776 4078.6 -1474.3)" d="m-642.33 290.96c1.5152 0.3788 3.283 1.7678 5.177 1.6415 1.894-0.12626 3.5355 0 3.5355 0s-0.75761 1.389-1.7678 1.389-5.3033-0.25253-5.9346-1.0102c-0.63135-0.75761-3.0305-2.2728-2.5254-2.2728 0.50507 0 1.5152 0.25254 1.5152 0.25254z" fill="#fff" filter="url(#df)" opacity=".82692"/>
   <path d="m885.46-649.63c11.173-2.8597 48.638-14.135 58.268-13.232 8.1949 0.78016 33.46 15.081 33.46 15.081l-32.075-9.4134c-14.557 0.57085-42.533 11.673-59.399 16.798z" stroke="#000" stroke-width=".12719"/>
   <path d="m891.64-603.58s12.126-20.059 32.582-20.55c17.222-0.41345 34.92 14.277 34.92 14.277s-13.863 14.872-33.675 16.804c-18.736 1.827-33.827-10.531-33.827-10.531z" fill="#fff"/>
   <g transform="matrix(4.5275 .17888 -.17888 4.5275 3777.2 -1681.8)">
    <path transform="matrix(1.067 -.17492 .16953 1.0341 -2.3994 -117.54)" d="m-615.56 261.67c0 2.0921-1.696 3.7881-3.7881 3.7881s-3.7881-1.696-3.7881-3.7881 1.696-3.7881 3.7881-3.7881 3.7881 1.696 3.7881 3.7881z" fill="url(#ci)" opacity=".82743"/>
    <path transform="matrix(1.0432 -.1193 .1193 1.0432 -4.0607 -86.005)" d="m-617.41 262.18c0 0.98623-0.79949 1.7857-1.7857 1.7857-0.98622 0-1.7857-0.79949-1.7857-1.7857 0-0.98622 0.7995-1.7857 1.7857-1.7857 0.98622 0 1.7857 0.79949 1.7857 1.7857z" opacity=".64159"/>
    <path transform="matrix(1.2092 -.13828 .13828 1.2092 94.75 -139.49)" d="m-617.41 260.53c0 0.41914-0.33978 0.75893-0.75893 0.75893-0.41914 0-0.75893-0.33979-0.75893-0.75893s0.33979-0.75893 0.75893-0.75893c0.41915 0 0.75893 0.33979 0.75893 0.75893z" fill="#fff" filter="url(#cc)" opacity=".82743"/>
   </g>
   <path d="m891.48-603.23s10.716-17.033 27.572-20.089c11.676-2.117 21.787 3.2492 31.662 7.7875 4.8986 2.251 8.0897 5.0383 8.0897 5.0383s-3.081 4.0622-6.6486 6.4362c-2.9686 1.9753-6.1888 4.4131-11.713 6.8894-5.5554 2.4902-17.593 4.9035-17.593 4.9035 0.1439 0.49555 12.464-0.0964 17.755-2.2624 7.4629-3.0551 10.579-4.7102 16.856-9.9259 4.6389-3.8541 7.6799-9.0122 8.8308-9.6545 0 0-15.043-11.716-33.609-14.466-3.0271-0.44843-12.454-0.52178-19.242 1.5145-4.3303 1.2996-10.593 5.8553-14.121 9.422-7.1634 7.2414-7.8382 14.406-7.8382 14.406z"/>
   <path d="m827.73-653.29c-10.577-4.5978-36.915-19.487-46.566-20.125-8.2149-0.5312-35.431 9.5753-35.431 9.5753l33.163-4.2c14.282 2.8754 30.892 13.721 46.729 21.459z" stroke="#000" stroke-width=".12719"/>
   <path d="m826.44-611.56s-10.505-20.953-30.859-23.056c-17.136-1.771-35.938 11.478-35.938 11.478s12.646 15.919 32.244 19.408c18.533 3.2994 34.552-7.8297 34.552-7.8297z" fill="#fff"/>
   <g transform="matrix(-4.2416 -.16759 -.16759 4.2416 -1795.4 -1834.1)">
    <path d="m-628.57 263.47s2.3642-4.1092 6.3035-4.9854c2.7288-0.60692 5.1587 0.56221 7.5256 1.5386 1.174 0.48432 1.9511 1.1107 1.9511 1.1107s-0.68747 0.98488-1.5052 1.5769c-0.68041 0.49259-1.4158 1.0964-2.6932 1.7307-1.2846 0.63784-4.0958 1.3179-4.0958 1.3179 0.0385 0.11531 2.933-0.13863 4.1583-0.69769 1.7283-0.78856 2.4463-1.2071 3.8756-2.4933 1.0561-0.95038 1.724-2.1928 1.9889-2.3548 0 0-3.65-2.6181-8.0459-3.0925-0.71675-0.0774-2.9364-7e-3 -4.5154 0.53547-1.0072 0.3462-2.4391 1.4768-3.2365 2.3492-1.6189 1.7712-1.7111 3.4641-1.7111 3.4641z"/>
   </g>
   <g transform="matrix(4.5275 .17888 -.17888 4.5275 3641.5 -1694.2)">
    <path transform="matrix(1.067 -.17492 .16953 1.0341 -2.3994 -117.54)" d="m-615.56 261.67c0 2.0921-1.696 3.7881-3.7881 3.7881s-3.7881-1.696-3.7881-3.7881 1.696-3.7881 3.7881-3.7881 3.7881 1.696 3.7881 3.7881z" fill="url(#ci)" opacity=".82743"/>
    <path transform="matrix(1.0432 -.1193 .1193 1.0432 -4.0607 -86.005)" d="m-617.41 262.18c0 0.98623-0.79949 1.7857-1.7857 1.7857-0.98622 0-1.7857-0.79949-1.7857-1.7857 0-0.98622 0.7995-1.7857 1.7857-1.7857 0.98622 0 1.7857 0.79949 1.7857 1.7857z" opacity=".64159"/>
    <path transform="matrix(1.2092 -.13828 .13828 1.2092 94.75 -139.49)" d="m-617.41 260.53c0 0.41914-0.33978 0.75893-0.75893 0.75893-0.41914 0-0.75893-0.33979-0.75893-0.75893s0.33979-0.75893 0.75893-0.75893c0.41915 0 0.75893 0.33979 0.75893 0.75893z" fill="#fff" filter="url(#cc)" opacity=".82743"/>
   </g>
   <path d="m812.6-507.97c8.0652 4.7998 15.85 8.4796 23.561 11.861l0.86774-9.7087z" fill="url(#cx)"/>
   <path transform="matrix(4.2991 0 0 5.3099 3544 -1238.4)" d="m-628.35 126.43 8.2857 0.71354s1.3615 2.365 0.68059 3.3552c-0.86661 1.2603-3.1577 1.6602-4.9393 1.6532-1.9862-8e-3 -5.0822-0.79344-5.4846-1.8858-0.62501-1.6964 1.4576-3.8362 1.4576-3.8362z" fill="url(#cy)" filter="url(#dc)" opacity=".53097"/>
   <path transform="matrix(4.2449 0 0 4.2449 -856.94 -2005.7)" d="m410.03 321.72-2.2982 11.229 0.25254 6.8185 3.0585-10.305c4.1191-4.5247 8.2721-6.012 10.157-5.4052 3.3845 1.0893 8.0269 3.927 7.4553 2.6466-0.74986-1.6796-8.9606-7.9923-12.842-6.1289z" fill="#f7bfa2" filter="url(#de)"/>
   <path transform="matrix(4.2449 0 0 4.2449 -856.94 -2005.7)" d="m456.79 450.58-12.63 26.31-26.66-9.17 30.71-23.57z" fill="url(#cz)" filter="url(#dn)"/>
   <path transform="matrix(4.2449 0 0 4.2449 -856.94 -2005.7)" d="m445.12 474.03c-10.735 30.797-11.136 47.297 2.3021 85.241l-26.582 11.244c-7.4869-26.442-7.2688-64.019-4.347-103.05z" fill="url(#da)" filter="url(#do)"/>
   <path transform="matrix(4.2585 0 0 4.2449 902.65 1632.7)" d="m5.73-392.71-0.19126 23.943c-13.715-0.1414-29.597 0.45071-42.014-2.9005-7.6426-1.3675-15.258-2.9203-25.652-7.518 0 0-6.7602-18.633-7.4339-21.819-0.61422-2.9041 17.447 7.3909 30.909 11.126 10.784 0.65373 27.946-0.62368 44.382-2.8324z" fill="url(#db)" filter="url(#dl)"/>
   <path d="m1040 307.15c-15.822 2.5777-29.892-12.388-42.372-13.46-15.105-1.2974-47.977 13.812-61.085 13.996-13.976 0.19611-14.716-5.9721-14.716-5.9721l41.561-21.224 29.156-8.5602s-26.251-1.2485-38.973 1.4241c-13.806 2.9004-28.728 15.068-39.34 15.604-10.599 0.53532-21.837-5.084-21.837-5.084l45.389-26.66 37.732-7.5802s-26.824-2.9353-39.417-2.496c-13.582 0.47377-25.588 9.3562-39.861 8.5601-12.933-0.72142-17.58-5.62-17.58-5.62l45.313-18.1 29.592-1.8658s-9.0138-3.9667-13.825-4.7162c-10.513-1.6377-20.856 2.496-31.913 0.62798-12.772-2.158-16.952-8.7441-16.952-8.7441l52.617-9.0042c26.783 13.139 69.702 18.772 89.635 25.846 9.0917 3.2267 18.717-2.7449 18.717-2.7449l34.496 60.569c-22.176 15.884-26.103 11.578-46.337 15.205z" fill="#fad4c0" stroke="#6b3627" stroke-width="1.0959"/>
   <path transform="matrix(-.54367 -5.2729 -7.3101 .68093 1160.4 -3985)" d="m-597.55 63.064s-19.719-3.3506-29.602-2.1514c-10.803 1.3109-31.588 10.112-31.588 10.112s21.321-3.3528 31.574-4.0427c9.0841-0.61119 32.781 1.1267 32.781 1.1267z" fill="url(#cf)" filter="url(#ce)"/>
  </g>
 </g>
</svg>
