<?xml version="1.0" encoding="UTF-8" standalone="no"?>
<!-- Created with Inkscape (http://www.inkscape.org/) -->

<svg
   xmlns:dc="http://purl.org/dc/elements/1.1/"
   xmlns:cc="http://creativecommons.org/ns#"
   xmlns:rdf="http://www.w3.org/1999/02/22-rdf-syntax-ns#"
   xmlns:svg="http://www.w3.org/2000/svg"
   xmlns="http://www.w3.org/2000/svg"
   xmlns:sodipodi="http://sodipodi.sourceforge.net/DTD/sodipodi-0.dtd"
   xmlns:inkscape="http://www.inkscape.org/namespaces/inkscape"
   version="1.1"
   width="300"
   height="300"
   id="svg2"
   inkscape:version="0.47 r22583"
   sodipodi:docname="crabvector17.svg"
   inkscape:export-filename="/home/tirso/Escritorio/1.png"
   inkscape:export-xdpi="300"
   inkscape:export-ydpi="300">
  <title
     id="title2856">Young</title>
  <sodipodi:namedview
     pagecolor="#ffffff"
     bordercolor="#666666"
     borderopacity="1"
     objecttolerance="10"
     gridtolerance="10"
     guidetolerance="10"
     inkscape:pageopacity="1"
     inkscape:pageshadow="2"
     inkscape:window-width="1024"
     inkscape:window-height="715"
     id="namedview49"
     showgrid="false"
     inkscape:zoom="1.1125147"
     inkscape:cx="329.81247"
     inkscape:cy="173.35806"
     inkscape:window-x="0"
     inkscape:window-y="25"
     inkscape:window-maximized="1"
     inkscape:current-layer="svg2" />
  <defs
     id="defs4">
    <inkscape:perspective
       sodipodi:type="inkscape:persp3d"
       inkscape:vp_x="0 : 150 : 1"
       inkscape:vp_y="0 : 1000 : 0"
       inkscape:vp_z="300 : 150 : 1"
       inkscape:persp3d-origin="150 : 100 : 1"
       id="perspective50" />
  </defs>
  <metadata
     id="metadata7">
    <rdf:RDF>
      <cc:Work
         rdf:about="">
        <dc:format>image/svg+xml</dc:format>
        <dc:type
           rdf:resource="http://purl.org/dc/dcmitype/StillImage" />
        <dc:title>Young</dc:title>
        <dc:date>02-11-2013</dc:date>
        <dc:creator>
          <cc:Agent>
            <dc:title>Tirso Otero</dc:title>
          </cc:Agent>
        </dc:creator>
        <cc:license
           rdf:resource="http://creativecommons.org/licenses/publicdomain/" />
      </cc:Work>
      <cc:License
         rdf:about="http://creativecommons.org/licenses/publicdomain/">
        <cc:permits
           rdf:resource="http://creativecommons.org/ns#Reproduction" />
        <cc:permits
           rdf:resource="http://creativecommons.org/ns#Distribution" />
        <cc:permits
           rdf:resource="http://creativecommons.org/ns#DerivativeWorks" />
      </cc:License>
    </rdf:RDF>
  </metadata>
  <g
     transform="translate(0,-200)"
     id="layer2">
    <g
       id="g3079">
      <path
         d="m 213.5673,437.75854 c -0.9292,-0.18528 -1.84524,-0.39768 -2.74055,-0.67646 -1.09281,-0.34028 -2.15935,-0.7378 -3.19153,-1.17948 -2.06437,-0.88335 -4.00366,-1.92713 -5.75863,-2.96604 -1.75497,-1.03891 -3.32686,-2.07024 -4.68322,-2.93135 -1.35637,-0.86111 -2.49644,-1.558 -3.36498,-1.90798 -4.82252,-3.30589 -8.96562,-6.32941 -11.1877,-7.97882 -0.0393,0.89853 -0.13102,1.75669 -0.29487,2.5671 -0.16384,0.81041 -0.40412,1.5757 -0.69381,2.32427 -0.28968,0.74856 -0.64126,1.4725 -1.05806,2.1855 -0.4168,0.713 -0.89448,1.41241 -1.43966,2.11612 -1.2779,1.64949 -2.89584,3.33125 -4.87402,5.27296 -1.97817,1.94171 -4.31657,4.14338 -7.04217,6.83404 l -1.14479,1.12744 -0.31221,-1.57842 c -0.34604,-1.73019 -0.72894,-3.27596 -1.12745,-4.66588 -0.3985,-1.38991 -0.80916,-2.62771 -1.23151,-3.71188 -0.42235,-1.08418 -0.84861,-2.0143 -1.2662,-2.82728 -0.4176,-0.81299 -0.82995,-1.5051 -1.21417,-2.08143 -0.76845,-1.15267 -1.44546,-1.87017 -1.90798,-2.28958 -0.16598,-0.15051 -0.26356,-0.21919 -0.36425,-0.29487 -1.37095,0.91187 -2.12138,1.38966 -2.30692,1.50904 0.13285,3.65733 0.41821,10.35409 0.45097,16.73818 0.0164,3.19204 -0.0347,6.31885 -0.19079,8.93281 -0.078,1.30698 -0.17264,2.48142 -0.31222,3.4864 -0.13958,1.00498 -0.3243,1.83033 -0.5377,2.42834 l -1.14479,-31.63777 c -0.92556,-0.39706 -1.81463,-0.82758 -2.67117,-1.28355 -0.24278,0.3555 -0.70724,1.06166 -1.23151,2.01206 -0.52428,0.95039 -1.11041,2.15538 -1.61311,3.50374 -0.25135,0.67418 -0.47,1.37938 -0.65912,2.11612 -0.18913,0.73674 -0.34461,1.49754 -0.43364,2.27223 -0.089,0.77469 -0.11834,1.57095 -0.0694,2.35896 0.049,0.788 0.17411,1.56489 0.39894,2.34161 l 0.62443,2.1855 -1.92532,-1.21417 c -2.41451,-1.51498 -4.61348,-3.03511 -6.5912,-4.57915 -1.97772,-1.54403 -3.73642,-3.10607 -5.27296,-4.68322 -1.53654,-1.57715 -2.84641,-3.17296 -3.93738,-4.78729 -0.54548,-0.80717 -1.04108,-1.61111 -1.47434,-2.42834 -0.43327,-0.81722 -0.80695,-1.65258 -1.12745,-2.48037 -3.59427,1.98227 -9.83671,5.64873 -15.97498,8.89812 -3.06914,1.62469 -6.10684,3.14724 -8.77671,4.30162 -1.33493,0.57719 -2.58883,1.06109 -3.69454,1.42232 -0.650126,0.21239 -1.135289,0.27921 -1.682489,0.39894 19.590269,52.46194 103.443569,48.38646 115.051139,0.84991 z"
         id="path3952"
         style="fill:#7bb82d;stroke:none" />
      <path
         d="m 152.09568,257.92285 c -1.39379,0.42835 -2.83367,0.8034 -4.26693,1.11009 -1.43327,0.3067 -2.86176,0.54695 -4.2149,0.74585 -2.7063,0.3978 -5.13096,0.59197 -6.79935,0.64177 l -1.16213,0.0347 0.24284,-0.93665 c -0.95454,0.38001 -2.10442,0.78981 -3.41702,1.24886 -2.41878,0.84591 -5.29235,1.77623 -8.06555,2.65383 -5.5464,1.75519 -10.64999,3.27825 -10.64999,3.27825 l -1.80391,0.52036 0.76319,-1.71718 c 0,0 0.79446,-1.64714 1.89064,-3.76393 -1.04997,1.13431 -2.11444,2.45631 -3.17419,3.88534 -1.05974,1.42904 -2.11474,2.96512 -3.12214,4.57915 -1.57071,2.51657 -3.05474,5.12114 -4.37101,7.5105 -1.31627,2.38936 -2.46479,4.56351 -3.38233,6.2443 -0.16496,0.96188 -0.16289,3.15413 0.0173,5.79332 0.18239,2.67079 0.51778,5.82317 0.86726,8.82874 0.69898,6.01114 1.4917,11.44787 1.4917,11.44787 l 0.0867,0.55505 -0.46832,0.29487 -3.156838,2.04674 -0.520358,-0.81523 -0.849918,0.27753 c 0,0 -0.250638,-0.80935 -0.763192,-1.97736 -0.256277,-0.58402 -0.591148,-1.25649 -0.971334,-1.96002 -0.380186,-0.70353 -0.81696,-1.44275 -1.31824,-2.15081 -0.501276,-0.70806 -1.057545,-1.37059 -1.665146,-1.96002 -0.6076,-0.58942 -1.266537,-1.10575 -1.960015,-1.47434 -0.693477,-0.3686 -1.40642,-0.60626 -2.185503,-0.67647 -0.389544,-0.0351 -0.791832,-0.0252 -1.214168,0.0347 -0.422337,0.0599 -0.872864,0.16094 -1.335586,0.32956 -0.444466,0.16197 -0.902525,0.40876 -1.35293,0.71116 -0.450405,0.3024 -0.883327,0.66497 -1.31824,1.09275 -0.434914,0.42777 -0.868218,0.91892 -1.266205,1.457 -0.397986,0.53808 -0.770474,1.11855 -1.110097,1.75187 -0.339623,0.63332 -0.637939,1.32037 -0.901953,2.0294 -0.264015,0.70902 -0.485757,1.45186 -0.65912,2.22019 -0.173364,0.76834 -0.296585,1.5477 -0.364251,2.35896 -0.06767,0.81126 -0.08776,1.64259 -0.03469,2.48037 0.05145,0.8124 0.169756,1.63865 0.346905,2.46303 0.177149,0.82438 0.409476,1.6583 0.728501,2.48037 0.319025,0.82207 0.719731,1.64022 1.196823,2.44568 0.477092,0.80547 1.031141,1.58439 1.682491,2.35896 0.651349,0.77456 1.395736,1.54286 2.237539,2.27223 0.841803,0.72937 1.778825,1.42888 2.827278,2.09878 1.048453,0.66989 2.215109,1.31186 3.486398,1.90797 1.271288,0.59612 2.652538,1.13976 4.162863,1.6478 -0.01116,-0.67909 -0.02009,-3.78139 0.208144,-6.88606 0.114134,-1.55234 0.293126,-3.10542 0.555048,-4.35367 0.130964,-0.62412 0.289419,-1.17881 0.468322,-1.61311 0.178903,-0.43429 0.372915,-0.75071 0.607084,-0.91929 0,0 -0.0627,1.83224 -0.104071,4.71791 -0.04135,2.88566 -0.06142,6.82473 0.05201,11.06628 0.05673,2.12077 0.1575,4.32871 0.294869,6.50447 0.137369,2.17576 0.321273,4.32255 0.555049,6.34837 0.233775,2.02581 0.503984,3.93159 0.849918,5.60252 0.345933,1.67093 0.757663,3.10379 1.231513,4.2149 0.4748,1.11332 1.23658,2.43517 2.23754,3.88533 1.00096,1.45017 2.25112,3.04045 3.67719,4.70057 1.42608,1.66012 3.03715,3.39101 4.7873,5.1342 1.75014,1.74318 3.62934,3.48687 5.60252,5.18623 1.97317,1.69937 4.04123,3.36094 6.14022,4.90871 2.09899,1.54777 4.22953,2.98257 6.34837,4.26694 2.11883,1.28437 4.22893,2.42113 6.26164,3.33029 1.01635,0.45458 2.00843,0.83966 2.98338,1.17948 0.97495,0.33981 1.92433,0.62149 2.84463,0.83257 1.84724,0.42368 3.68091,0.69824 5.46375,0.83257 1.78285,0.13434 3.51428,0.14007 5.18624,0.052 1.67196,-0.088 3.27271,-0.27694 4.78729,-0.52036 1.51458,-0.24342 2.93889,-0.55278 4.24959,-0.88461 2.62139,-0.66365 4.80413,-1.43133 6.33102,-2.04674 1.52689,-0.61541 2.40262,-1.07877 2.46303,-1.11009 0.0409,-0.0328 1.05885,-0.84434 2.7579,-2.37631 1.69904,-1.53196 4.08184,-3.78385 6.85138,-6.67792 1.38476,-1.44704 2.8635,-3.06012 4.40569,-4.82199 1.5422,-1.76186 3.14378,-3.66436 4.76995,-5.72393 1.62617,-2.05957 3.27203,-4.26841 4.90871,-6.60855 1.63668,-2.34013 3.26559,-4.8202 4.83933,-7.42377 0.35015,-1.4744 0.60093,-3.04542 0.76319,-4.68322 0.16226,-1.6378 0.24701,-3.33572 0.26018,-5.04747 0.0131,-1.71176 -0.0416,-3.43791 -0.13876,-5.1342 -0.0971,-1.69629 -0.24764,-3.36936 -0.41629,-4.96075 -0.20891,-1.9713 -0.44975,-3.75223 -0.69381,-5.41172 -0.0441,-0.80276 -0.29344,-2.12259 -0.45092,-2.93132 -0.37285,-2.2502 -0.67991,-3.80185 -0.76319,-4.50977 0.38772,0.43149 0.70808,0.8703 0.98868,1.33558 0.2806,0.46529 0.53249,0.96598 0.74584,1.50904 0.42671,1.08614 0.74778,2.3629 1.14479,4.0241 0.31212,0.54923 0.6452,1.00158 1.00603,1.37028 0.36082,0.3687 0.75375,0.65583 1.16213,0.86726 0.40838,0.21143 0.84611,0.35622 1.30089,0.43363 0.45479,0.0774 0.92227,0.0854 1.42232,0.052 0.55319,-0.0369 1.13712,-0.13784 1.73452,-0.31221 0.59741,-0.17437 1.21857,-0.41816 1.8386,-0.71116 1.24006,-0.58598 2.49351,-1.39432 3.69454,-2.34161 0.48958,-0.38615 1.02354,-1.06726 1.54373,-1.97736 0.52019,-0.9101 1.0266,-2.04916 1.457,-3.33029 0.4304,-1.28113 0.80976,-2.70198 1.09275,-4.19755 0.283,-1.49558 0.46963,-3.06587 0.55505,-4.63119 0.0854,-1.56531 0.0671,-3.12649 -0.0867,-4.61384 -0.15387,-1.48735 -0.44333,-2.90085 -0.86727,-4.16286 -0.21197,-0.631 -0.44766,-1.22291 -0.7285,-1.76922 -0.28084,-0.54631 -0.59989,-1.0408 -0.95399,-1.49169 -0.3541,-0.4509 -0.74774,-0.85206 -1.17948,-1.19683 -0.43173,-0.34476 -0.90854,-0.63934 -1.42231,-0.86726 -0.52788,-0.23417 -1.03504,-0.38496 -1.52638,-0.48567 -0.49135,-0.1007 -0.96027,-0.15533 -1.42231,-0.13876 -0.46205,0.0166 -0.91294,0.0905 -1.35293,0.20814 -0.44,0.11767 -0.87571,0.2831 -1.3009,0.48567 -0.85038,0.40515 -1.66224,0.98812 -2.42833,1.66515 -0.7661,0.67703 -1.48642,1.44812 -2.13347,2.27223 -0.64706,0.8241 -1.22944,1.69058 -1.73453,2.51506 -0.50509,0.82448 -0.93363,1.61967 -1.28355,2.30692 -0.69984,1.37451 -1.0754,2.32427 -1.0754,2.32427 -0.83299,-0.36081 -0.8031,-0.39215 -0.74585,0.48566 l -3.22622,0.20815 -0.64177,0.0347 -0.22549,-0.60709 c 0,0 -0.13503,-0.39336 -0.32956,-1.17948 -0.19454,-0.78611 -0.44106,-1.96249 -0.65912,-3.52108 -0.21807,-1.5586 -0.41506,-3.49322 -0.48567,-5.81067 -0.0706,-2.31745 -0.0224,-5.02022 0.22549,-8.08289 0.12158,-1.50238 0.20492,-2.94248 0.24283,-4.33632 0.0379,-1.39383 0.0263,-2.7379 -0.0347,-4.04144 -0.0609,-1.30355 -0.17192,-2.5671 -0.3469,-3.79862 -0.17499,-1.23151 -0.40693,-2.43005 -0.71116,-3.60781 -0.30423,-1.17776 -0.67879,-2.3268 -1.12744,-3.46905 -0.44866,-1.14226 -0.97014,-2.27466 -1.57842,-3.39968 -0.60828,-1.12501 -1.29834,-2.25628 -2.08143,-3.38232 -0.78309,-1.12605 -1.66338,-2.25435 -2.63648,-3.39967 -0.46956,-0.55267 -0.96474,-1.05401 -1.47435,-1.50904 -0.50961,-0.45503 -1.03188,-0.86673 -1.57842,-1.23152 -1.09307,-0.72957 -2.26429,-1.28685 -3.4864,-1.69983 -1.22211,-0.41298 -2.48973,-0.67702 -3.81596,-0.83257 -1.32622,-0.15556 -2.70541,-0.19883 -4.11082,-0.15611 -1.40541,0.0427 -2.84346,0.17502 -4.28428,0.36425 -1.44083,0.18923 -2.87856,0.43462 -4.31897,0.71116 -2.88083,0.55305 -5.73089,1.22225 -8.39511,1.76921 l -1.6478,0.34691 0.67646,-1.54373 c 0.35802,-0.81549 0.77674,-1.43891 1.24886,-1.97736 z m 14.65675,134.235 c -1.32089,0.47243 -2.89052,0.97129 -4.66588,1.42231 -1.77535,0.45101 -3.75399,0.85152 -5.88004,1.12744 -2.12605,0.27591 -4.40904,0.43448 -6.782,0.38159 -1.18648,-0.0264 -2.39641,-0.10537 -3.62516,-0.24283 -1.22874,-0.13746 -2.47119,-0.3394 -3.72923,-0.60708 0.0528,0.94977 0.21755,4.0099 0.26018,8.10024 0.0227,2.17917 0.0128,4.48747 -0.0867,6.64323 -0.0996,2.15576 -0.28886,4.15897 -0.62443,5.72394 0.74417,0.84964 1.59457,1.7668 2.54976,2.68851 0.95518,0.92172 2.00955,1.86084 3.17418,2.77525 1.16463,0.9144 2.44347,1.79142 3.81596,2.61913 1.37249,0.82771 2.84427,1.59325 4.42304,2.25489 0.36656,-0.23533 3.51525,-2.25928 7.3197,-4.9434 1.81228,-1.27861 3.6697,-2.6521 5.29031,-3.93738 -0.40202,-0.95606 -0.72142,-2.059 -0.97134,-3.26091 -0.24991,-1.20191 -0.42486,-2.50055 -0.55505,-3.85065 -0.26037,-2.70019 -0.31915,-5.60133 -0.29487,-8.30838 0.0326,-3.63683 0.24359,-6.7574 0.3816,-8.5859 z"
         id="path3960"
         style="fill:#ffe07f;stroke:none" />
      <path
         d="m 126.73691,291.27779 c -0.98661,0.11389 -1.90319,0.28166 -2.77525,0.48567 -0.87206,0.204 -1.69802,0.44716 -2.46302,0.7285 -0.76501,0.28134 -1.48537,0.60811 -2.15082,0.95399 -0.66544,0.34588 -1.28256,0.71246 -1.85594,1.11009 -1.14675,0.79527 -2.10793,1.67625 -2.93135,2.60179 -0.82342,0.92555 -1.50405,1.89112 -2.06409,2.84463 -0.50542,0.86054 -0.89545,1.69869 -1.21416,2.46302 -0.31872,0.76434 -0.57076,1.46641 -0.74585,2.08144 -0.35018,1.23005 -0.45154,2.09683 -0.48567,2.41099 0.83821,0.65643 1.68119,1.22882 2.51507,1.71718 0.83387,0.48836 1.6564,0.89447 2.48037,1.23151 0.82396,0.33705 1.65454,0.61274 2.46303,0.81523 0.80848,0.20249 1.60621,0.3316 2.39364,0.41629 0.78744,0.0847 1.56345,0.12043 2.32427,0.10407 0.76082,-0.0164 1.49156,-0.0901 2.22019,-0.1908 1.45728,-0.2013 2.8504,-0.55075 4.14552,-0.98868 1.22682,-0.41484 2.33811,-0.88135 3.33029,-1.37028 0.99218,-0.48892 1.87294,-0.9959 2.60179,-1.457 1.45769,-0.9222 2.35231,-1.69121 2.58444,-1.89063 -0.0265,-0.30542 -0.0962,-1.12531 -0.32956,-2.27223 -0.23334,-1.14692 -0.63035,-2.62087 -1.28355,-4.19755 -0.36296,-0.87612 -0.7998,-1.73884 -1.31824,-2.5671 -0.51843,-0.82826 -1.11372,-1.6149 -1.82125,-2.30692 -0.70753,-0.69203 -1.51543,-1.30181 -2.44568,-1.76922 -0.46513,-0.2337 -0.96458,-0.42876 -1.49169,-0.58974 -0.52712,-0.16098 -1.0892,-0.28705 -1.68249,-0.36425 z"
         id="path3992"
         style="fill:#ffffff;stroke:none" />
      <path
         d="m 168.41758,289.49123 c -0.2982,-0.0123 -0.58753,-0.003 -0.86727,0.0173 -0.83921,0.0601 -1.59736,0.24621 -2.30692,0.53771 -0.70956,0.29149 -1.37052,0.6884 -1.97736,1.16213 -0.8091,0.63165 -1.53123,1.42373 -2.16816,2.28958 -0.63693,0.86584 -1.18867,1.80543 -1.66514,2.77524 -0.44236,0.90036 -0.80444,1.79476 -1.1101,2.63648 -0.30566,0.84172 -0.55597,1.6303 -0.74584,2.32426 -0.37974,1.38792 -0.54772,2.39166 -0.58974,2.65383 0.44997,0.56753 0.94476,1.08406 1.457,1.54373 0.51224,0.45967 1.04805,0.8714 1.61311,1.23151 0.56506,0.36012 1.14343,0.66776 1.75187,0.93665 0.60844,0.26888 1.24825,0.4905 1.89063,0.67646 1.28477,0.37193 2.62555,0.5863 3.98941,0.67647 1.36386,0.0902 2.74341,0.0557 4.11083,-0.0694 1.29344,-0.1183 2.56127,-0.31956 3.76392,-0.57239 1.20266,-0.25282 2.34524,-0.54581 3.38233,-0.86726 2.07417,-0.6429 3.73732,-1.36856 4.70057,-1.89064 -0.086,-0.52305 -0.24231,-1.36141 -0.71116,-2.67117 -0.2801,-0.78246 -0.6281,-1.64432 -1.05806,-2.54975 -0.42996,-0.90543 -0.94189,-1.85443 -1.52638,-2.79259 -0.5845,-0.93815 -1.23565,-1.85226 -1.97736,-2.7232 -0.74172,-0.87095 -1.57009,-1.69143 -2.48038,-2.411 -0.91029,-0.71957 -1.91052,-1.33723 -3.00073,-1.82125 -0.5451,-0.24201 -1.10762,-0.45709 -1.69983,-0.62443 -0.59222,-0.16733 -1.21521,-0.29945 -1.85595,-0.38159 -0.31403,-0.0403 -0.6211,-0.0745 -0.91929,-0.0867 z"
         id="path3984"
         style="fill:#ffffff;stroke:none" />
      <path
         d="m 168.875,96.125 c -0.61112,0 -1.16455,0.12811 -1.6875,0.34375 -0.52295,0.21564 -1.01454,0.52151 -1.40625,0.90625 -0.3917,0.38475 -0.68886,0.83644 -0.90625,1.34375 -0.21738,0.50732 -0.34375,1.07289 -0.34375,1.65625 0,0.58335 0.12637,1.14894 0.34375,1.65625 0.21739,0.50732 0.51455,0.959 0.90625,1.34375 0.39171,0.38475 0.8833,0.69061 1.40625,0.90625 0.52295,0.21565 1.07638,0.34375 1.6875,0.34375 0.61113,0 1.19406,-0.1281 1.71875,-0.34375 0.52468,-0.21564 1.01222,-0.5215 1.40625,-0.90625 0.39402,-0.38475 0.71838,-0.83643 0.9375,-1.34375 0.21913,-0.50731 0.3125,-1.0729 0.3125,-1.65625 0,-0.58336 -0.0934,-1.14893 -0.3125,-1.65625 -0.21912,-0.50731 -0.54348,-0.959 -0.9375,-1.34375 -0.39403,-0.38474 -0.88157,-0.69061 -1.40625,-0.90625 C 170.06906,96.25311 169.48613,96.125 168.875,96.125 z M 126.5,97.78125 c -0.64251,0 -1.26269,0.14829 -1.8125,0.375 -0.5498,0.22672 -1.02568,0.56424 -1.4375,0.96875 -0.41182,0.4045 -0.77145,0.87288 -1,1.40625 -0.22855,0.53337 -0.34375,1.10544 -0.34375,1.71875 0,0.61331 0.1152,1.21663 0.34375,1.75 0.22855,0.53337 0.58818,1.00174 1,1.40625 0.41182,0.4045 0.8877,0.74203 1.4375,0.96875 0.54981,0.22671 1.16999,0.34375 1.8125,0.34375 0.64251,0 1.26087,-0.11704 1.8125,-0.34375 0.55163,-0.22672 1.05449,-0.56425 1.46875,-0.96875 0.41426,-0.40451 0.73837,-0.87288 0.96875,-1.40625 0.23038,-0.53337 0.34375,-1.13669 0.34375,-1.75 0,-0.6133 -0.11337,-1.18538 -0.34375,-1.71875 -0.23038,-0.53337 -0.55449,-1.00175 -0.96875,-1.40625 -0.41426,-0.40451 -0.91712,-0.74203 -1.46875,-0.96875 -0.55163,-0.22671 -1.16999,-0.375 -1.8125,-0.375 z"
         transform="translate(0,200)"
         id="path4008"
         style="fill:#a86724;stroke:none" />
      <path
         d="m 85.535714,112.23214 c 0,0 3.660714,-4.55357 7.410714,0.71429 -2.142857,1.69643 -4.464286,3.30357 -3.571428,5.35714 -0.982143,-4.73214 1.428571,-5.71428 -3.839286,-6.07143 z"
         transform="translate(0,200)"
         id="path3013"
         style="fill:#feca55;stroke:none" />
      <path
         d="m 96.785714,135.17857 c 0,0 -18.877699,-3.36897 -18.246354,-21.17291 2.399112,8.71257 8.460027,17.04633 18.561553,19.31917 -0.378807,1.51523 -0.315199,1.85374 -0.315199,1.85374 z"
         transform="translate(0,200)"
         id="path3015"
         style="fill:#feca55;stroke:none" />
      <path
         d="m 207.46008,116.0891 c 0,0 -2.27285,-2.27284 -3.59867,-3.21986 2.65165,-2.20971 4.48255,-5.24016 8.01809,-0.50507 -1.6415,0 -5.55584,-1.32583 -4.41942,3.72493 z"
         transform="translate(0,200)"
         id="path3017"
         style="fill:#feca55;stroke:none" />
      <path
         d="m 199.25259,128.96855 c 0,0 3.85121,9.72272 14.96288,-0.75762 3.21986,-7.63927 3.59867,-11.36421 3.91434,-15.59423 -1.47681,6.51815 -5.81075,23.03055 -18.87722,16.35185 z"
         transform="translate(0,200)"
         id="path3019"
         style="fill:#feca55;stroke:none" />
      <path
         d="m 145.39883,170.70047 c 0,0 5.99778,4.16688 13.32139,-0.12626 -2.46225,3.34613 -7.57615,9.02823 -13.32139,0.12626 z"
         transform="translate(0,200)"
         id="path3021"
         style="fill:#feca55;stroke:none" />
      <path
         d="m 141.07143,193.30357 c 0,0 12.14286,3.30357 26.07143,-2.05357 0.71428,2.5 0.17857,4.01786 0.17857,4.01786 0,0 -14.375,5.625 -25.80357,-0.17857 -0.44643,-0.625 -0.44643,-1.78572 -0.44643,-1.78572 z"
         transform="translate(0,200)"
         id="path3023"
         style="fill:#feca55;stroke:none" />
      <path
         d="m 140.79001,145.95174 c 0,0 7.82868,4.79822 23.10724,-0.50508 -2.77792,3.78807 -15.40483,9.59645 -23.10724,0.50508 z"
         transform="translate(0,200)"
         id="path3025"
         style="fill:#feca55;stroke:none" />
      <path
         d="m 109.01786,107.41072 c 0,0 13.75,12.32142 29.10714,-1.69643 -4.46429,9.73214 -23.30357,13.21428 -29.10714,1.69643 z"
         transform="translate(0,200)"
         id="path3027"
         style="fill:#feca55;stroke:none" />
      <path
         d="m 155.96048,304.40379 c 0,0 12.61358,12.57395 28.8546,1.08149 -5.72698,7.8381 -23.05103,10.43636 -28.8546,-1.08149 z"
         id="path3029"
         style="fill:#feca55;stroke:none" />
      <path
         d="m 140.15866,214.01077 c 0,0 7.44988,9.72271 15.40483,11.99556 6.81853,-4.67196 13.8896,-9.84899 13.8896,-9.84899 l -0.88388,-1.76777 c 0,0 -12.75318,13.8896 -28.41055,-0.3788 z"
         transform="translate(0,200)"
         id="path3031"
         style="fill:#feca55;stroke:none" />
      <path
         d="m 122.60726,99.169048 c -0.0709,0.141783 1.02614,6.597152 8.01809,6.439722 -2.65165,1.68087 -11.49048,3.3312 -8.01809,-6.439722 z"
         transform="translate(0,200)"
         id="path3033"
         style="fill:#775425;stroke:none" />
      <path
         d="m 165.01798,297.11547 c -0.0709,0.14179 1.02614,6.59715 8.01809,6.43972 -2.65165,1.68087 -11.49048,3.3312 -8.01809,-6.43972 z"
         id="path3035"
         style="fill:#775425;stroke:none" />
      <path
         d="m 161.03125,34.15625 c -1.0031,0.0019 -2.02352,0.0476 -3.09375,0.125 -2.15373,0.15569 -3.94253,0.4023 -5.5,0.6875 -1.55747,0.2852 -2.8706,0.59645 -4.0625,0.96875 -2.38382,0.74458 -4.28802,1.63031 -6.59375,2.46875 -1.1027,0.40099 -2.30092,0.77951 -3.6875,1.125 -1.38658,0.34548 -2.9683,0.6567 -4.8125,0.90625 -1.8442,0.24955 -3.96196,0.44931 -6.4375,0.5625 -2.47554,0.1132 -5.2819,0.15735 -8.5625,0.09375 0.72648,1.02192 1.66405,1.76871 2.5,2.59375 0.41798,0.41252 0.79729,0.85815 1.125,1.34375 0.32771,0.4856 0.59098,1.01603 0.75,1.65625 -1.50576,0.0693 -3.17734,-0.0093 -5,-0.03125 -1.82266,-0.02186 -3.78509,0.0029 -5.90625,0.25 -1.06058,0.12355 -2.14949,0.30421 -3.28125,0.5625 -1.13175,0.25829 -2.33062,0.59321 -3.53125,1.03125 -1.20063,0.43803 -2.42029,0.99346 -3.6875,1.65625 -1.267211,0.66279 -2.574761,1.44245 -3.90625,2.375 1.960509,0.35663 3.3125,0.75 3.3125,0.75 l 1.28125,0.5 -1.03125,0.9375 c 0,0 -1.101142,0.98589 -2.625,2.9375 -0.761926,0.9758 -1.604685,2.19609 -2.5,3.65625 -0.895315,1.46015 -1.823845,3.18285 -2.6875,5.125 -0.430507,0.9681 -0.859717,1.97702 -1.25,3.0625 -0.390282,1.08549 -0.764962,2.23507 -1.09375,3.4375 -0.328789,1.20242 -0.597724,2.46231 -0.84375,3.78125 -0.246025,1.31895 -0.451752,2.68997 -0.59375,4.125 -0.141998,1.43502 -0.23329,2.94933 -0.25,4.5 -0.0167,1.55068 0.05763,3.1466 0.1875,4.8125 0.129871,1.66589 0.327294,3.37556 0.625,5.15625 0.297706,1.78068 0.669439,3.63621 1.15625,5.53125 0.388323,0.13197 0.765551,0.27769 1.125,0.46875 0.870299,0.46257 1.672014,1.06685 2.375,1.75 0.702985,0.68315 1.324997,1.44187 1.875,2.21875 0.749371,1.0585 1.35347,2.17468 1.84375,3.15625 0.49028,0.98156 0.85554,1.85098 1.09375,2.46875 l 1.8125,-1.1875 c -0.072,-0.48974 -0.7686,-5.18497 -1.4375,-10.9375 -0.351368,-3.02177 -0.658197,-6.18922 -0.84375,-8.90625 -0.09275,-1.35851 -0.17523,-2.59308 -0.1875,-3.65625 -0.01228,-1.06317 0.03168,-1.9711 0.15625,-2.65625 l 0.03125,-0.125 0.0625,-0.125 c 0.905562,-1.65439 2.09594,-3.86703 3.4375,-6.3125 1.34155,-2.44547 2.84843,-5.12271 4.46875,-7.71875 0.81016,-1.29801 1.65319,-2.56239 2.5,-3.78125 0.84681,-1.21886 1.71827,-2.37367 2.59375,-3.4375 0.87547,-1.06383 1.72884,-2.04207 2.625,-2.875 0.89616,-0.83293 1.8099,-1.53632 2.71875,-2.0625 l 2.90625,-1.6875 -1.71875,2.875 c -1.58143,2.63572 -2.64282,4.70297 -3.34375,6.15625 1.35886,-0.40455 4.22762,-1.24648 8.78125,-2.6875 2.76355,-0.87454 5.60916,-1.82012 8,-2.65625 2.39084,-0.83615 4.36546,-1.62341 5.09375,-2.03125 l 0.0625,0.15625 c 0.40273,-0.49494 0.87526,-0.96463 1.375,-1.40625 0.49975,-0.44163 1.05023,-0.85762 1.5625,-1.25 1.69678,-1.29966 3.28125,-2.25 3.28125,-2.25 -0.24539,0.7946 -0.31396,1.30808 -0.5625,1.8125 -0.12427,0.25222 -0.26627,0.52384 -0.53125,0.8125 -0.26499,0.28865 -0.65725,0.60225 -1.15625,1 -1.04796,0.8027 -1.93379,1.7491 -2.59375,2.59375 1.29228,-0.08769 2.87846,-0.23802 4.5625,-0.46875 1.68405,-0.23072 3.45788,-0.54169 5.25,-0.9375 1.79213,-0.39581 3.571,-0.88582 5.1875,-1.46875 0.80825,-0.29147 1.60135,-0.62637 2.3125,-0.96875 0.71116,-0.34238 1.35891,-0.6977 1.9375,-1.09375 -0.0119,0.41383 -0.12225,0.79364 -0.28125,1.15625 -0.159,0.36262 -0.37681,0.71765 -0.65625,1.0625 -0.55886,0.68968 -1.33844,1.3682 -2.21875,2.1875 -0.43864,0.31968 -0.75103,0.59809 -1.0625,0.9375 2.40093,-0.5208 4.92634,-1.09672 7.5,-1.5625 1.28683,-0.23288 2.60313,-0.40555 3.90625,-0.5625 1.30312,-0.15696 2.57352,-0.2729 3.875,-0.3125 1.47685,-0.04489 2.96994,0.01121 4.40625,0.1875 1.4363,0.17628 2.83738,0.47585 4.1875,0.9375 0.67505,0.23083 1.3238,0.49829 1.96875,0.8125 0.64495,0.31421 1.26586,0.65688 1.875,1.0625 0.60914,0.40561 1.21362,0.86995 1.78125,1.375 0.56762,0.50505 1.1046,1.04374 1.625,1.65625 1.00682,1.18501 1.9054,2.3855 2.71875,3.5625 0.81335,1.177 1.55272,2.34769 2.1875,3.53125 0.63478,1.18355 1.18514,2.38908 1.65625,3.59375 0.47112,1.20468 0.86515,2.41588 1.1875,3.65625 0.32235,1.24036 0.56152,2.49063 0.75,3.78125 0.18848,1.29062 0.3055,2.6133 0.375,3.96875 0.0695,1.35545 0.0971,2.75265 0.0625,4.1875 -0.0346,1.43485 -0.12628,2.90869 -0.25,4.4375 -0.20818,2.57209 -0.2687,4.82783 -0.25,6.8125 0.0187,1.98466 0.13444,3.70491 0.28125,5.125 0.1468,1.42008 0.32391,2.55915 0.5,3.4375 0.17609,0.87836 0.33089,1.48427 0.4375,1.84375 l 2.03125,-0.125 c 0.25402,-0.59741 0.7208,-1.65324 1.40625,-2.90625 0.68544,-1.25301 1.58981,-2.69572 2.6875,-4.09375 0.69771,-0.88862 1.47963,-1.76624 2.34375,-2.53125 0.86412,-0.76502 1.81169,-1.41453 2.84375,-1.90625 0.68503,-0.32637 1.39735,-0.58101 2.15625,-0.71875 0.0575,-0.70361 0.2325,-2.86987 0.25,-6.03125 0.009,-1.58068 -0.0325,-3.4231 -0.125,-5.4375 -0.0925,-2.01441 -0.24551,-4.2036 -0.5,-6.53125 -0.28219,-2.58094 -0.68643,-5.29804 -1.25,-8.03125 -0.28179,-1.3666 -0.60207,-2.72571 -0.96875,-4.09375 -0.36667,-1.36804 -0.78875,-2.74869 -1.25,-4.09375 -0.46126,-1.34506 -0.96571,-2.6711 -1.53125,-3.96875 C 201.77821,58.7336 201.17951,57.47583 200.5,56.25 c -0.67952,-1.22583 -1.44682,-2.40167 -2.25,-3.53125 -0.80319,-1.12959 -1.65721,-2.20983 -2.59375,-3.21875 l -1.0625,-1.125 1.53125,-0.3125 c 1.78179,-0.36363 1.65031,-0.40814 2.34375,-0.59375 -0.1271,-0.06092 -0.11579,-0.03295 -0.25,-0.09375 -0.61951,-0.28045 -1.30753,-0.54914 -1.9375,-0.71875 -0.62996,-0.16964 -1.19813,-0.2444 -1.5625,-0.1875 l -2.46875,0.375 1.71875,-1.8125 c 0.48607,-0.51848 0.93603,-1.11866 1.34375,-1.71875 0.40772,-0.60008 0.76847,-1.19976 1.0625,-1.75 0.12725,-0.23816 0.21023,-0.414 0.3125,-0.625 -0.63926,0.13409 -1.18578,0.2224 -1.875,0.4375 -0.64737,0.20205 -1.2478,0.46725 -1.71875,0.75 -0.47094,0.28275 -0.79747,0.59495 -0.9375,0.875 l -0.75,1.46875 L 190.625,43 c -0.80189,-1.46058 -1.67395,-2.89485 -2.5625,-4.15625 -0.88854,-1.26141 -1.80874,-2.33573 -2.65625,-3.0625 -0.11961,0.94692 -0.24615,1.90655 -0.28125,2.9375 -0.0518,1.51923 -0.0313,2.75 -0.0313,2.75 l 0.0313,2.1875 -1.53125,-1.59375 c 0,0 -0.46781,-0.47502 -1.40625,-1.21875 -0.46921,-0.37186 -1.04592,-0.81665 -1.75,-1.28125 -0.70407,-0.46461 -1.52965,-0.94228 -2.46875,-1.4375 -0.9391,-0.49523 -1.98196,-1.00503 -3.15625,-1.46875 -1.17428,-0.46372 -2.49661,-0.87991 -3.90625,-1.25 -1.40963,-0.37009 -2.91735,-0.69192 -4.5625,-0.90625 -1.64514,-0.21434 -3.43168,-0.34775 -5.3125,-0.34375 z m 8.28125,33.625 c -0.56708,-0.004 -1.16786,0.05831 -1.78125,0.1875 -0.60314,0.12699 -1.2218,0.31287 -1.875,0.59375 -0.65319,0.28088 -1.33106,0.67009 -2.03125,1.125 -0.7002,0.4549 -1.44338,1.00719 -2.1875,1.65625 -0.74412,0.64905 -1.49626,1.38667 -2.28125,2.25 -0.18573,0.7291 -0.30552,1.49586 -0.40625,2.3125 -0.10074,0.81664 -0.183,1.67727 -0.21875,2.625 0.71271,-0.47266 1.67506,-1.08587 2.90625,-1.71875 1.23119,-0.63288 2.73104,-1.29217 4.5,-1.84375 1.23135,-0.38394 2.55016,-0.67745 3.875,-0.8125 0.66241,-0.0675 1.33139,-0.0855 2,-0.0625 0.66861,0.023 1.30539,0.08626 1.96875,0.21875 0.91445,0.18265 1.82214,0.52031 2.6875,0.96875 0.86537,0.44844 1.69311,1.02055 2.46875,1.75 -0.22115,-0.8553 -0.50627,-1.76396 -0.9375,-2.65625 -0.47341,-0.97954 -1.08034,-1.94122 -1.78125,-2.8125 -0.70091,-0.87128 -1.48919,-1.63249 -2.375,-2.25 -0.66437,-0.46313 -1.37197,-0.86058 -2.125,-1.125 -0.75304,-0.26441 -1.55562,-0.40065 -2.40625,-0.40625 z M 123.90625,73.125 c -0.61544,0.0178 -1.23952,0.06994 -1.875,0.15625 -0.63548,0.0863 -1.27025,0.20505 -1.90625,0.375 -0.63599,0.16995 -1.28479,0.38571 -1.90625,0.65625 -0.62145,0.27054 -1.22064,0.61189 -1.8125,1 -0.59187,0.38811 -1.17153,0.82109 -1.71875,1.34375 -0.44575,0.42574 -0.87575,0.90365 -1.28125,1.4375 -0.4055,0.53384 -0.79767,1.13159 -1.15625,1.78125 -0.35858,0.64965 -0.69501,1.35185 -1,2.125 -0.30499,0.77316 -0.56778,1.59564 -0.8125,2.5 0.69389,-0.56222 1.50923,-1.17211 2.46875,-1.8125 0.95952,-0.64039 2.07192,-1.28687 3.28125,-1.875 1.08097,-0.52572 2.23656,-0.9906 3.46875,-1.34375 1.23218,-0.35314 2.51505,-0.61613 3.84375,-0.6875 0.66435,-0.0357 1.35303,-0.02395 2.03125,0.03125 0.67822,0.0552 1.346,0.15269 2.03125,0.3125 0.68524,0.15982 1.37706,0.37821 2.0625,0.65625 0.68545,0.27805 1.38371,0.62133 2.0625,1.03125 0.13927,-0.97 0.20313,-1.83299 0.21875,-2.59375 0.0157,-0.76076 -0.007,-1.42118 -0.0625,-1.96875 -0.1107,-1.09514 -0.32767,-1.75013 -0.40625,-1.96875 -0.20849,-0.0754 -0.85705,-0.2929 -1.84375,-0.53125 -0.98669,-0.23835 -2.32024,-0.49509 -3.90625,-0.59375 -0.57993,-0.0358 -1.1658,-0.04905 -1.78125,-0.03125 z"
         transform="translate(0,200)"
         id="path3976"
         style="fill:#dc7c22;stroke:none" />
      <path
         d="m 158.125,79.642858 c 0,0 13.75,-9.821428 21.69643,-0.803571 -1.41397,-4.478893 -13.91718,-10.99354 -21.69643,0.803571 z"
         transform="translate(0,200)"
         id="path3041"
         style="fill:#a86724;stroke:none" />
      <path
         d="m 110,85.625001 c 0,0 14.28571,-9.642857 22.05357,-3.571429 -0.71429,-5.625 -15,-8.392857 -22.05357,3.571429 z"
         transform="translate(0,200)"
         id="path3043"
         style="fill:#a86724;stroke:none" />
      <path
         d="m 98.928571,111.96429 c 0,0 -3.214286,-8.39286 -8.482143,-10.35715 C 88.660714,92.94643 83.214285,73.928573 100.53571,54.285716 97.678571,53.214287 95,52.500001 95,52.500001 c 0,0 13.39286,-8.392857 25.71429,-6.607143 -1.07143,-2.321428 -3.92858,-5.714285 -3.92858,-5.714285 0,0 19.28572,1.607143 29.10715,-4.642857 12.67857,-5.178572 31.07142,-1.428572 38.57142,5.714285 -0.17857,-5 0.53572,-7.142857 0.53572,-7.142857 0,0 5.35714,5.535714 6.25,8.035714 2.67857,-1.428571 5.98228,-2.067734 6.55049,-2.257137 -0.69448,2.714785 -3.40926,5.871512 -3.40926,5.871512 0,0 4.86136,0.252538 6.25032,1.95717 -2.84106,0.883884 -4.35628,1.262691 -4.35628,1.262691 3.56897,-0.223061 15.87042,26.66497 12.4375,50.002551 -4.29315,1.515225 -6.69226,1.767765 -11.86929,11.995565 2.90418,-10.35407 5.55584,-11.743027 9.09137,-13.889601 0.75761,-3.282996 1.91229,-30.835608 -12.19485,-47.621322 -0.53572,-0.535714 -1.42857,-1.339286 -1.42857,-1.339286 l 1.25,-0.357143 -3.21429,-0.267857 1.69643,-1.964286 -4.46429,-1.964285 -1.07142,3.660714 c 0,0 -15.44643,-18.125 -41.875,-7.589286 -12.32143,3.75 -23.03572,2.857143 -23.03572,2.857143 l 5.53572,5.714286 c 0,0 -19.64286,-0.535714 -24.10715,3.392857 2.85715,0.714286 3.03572,2.321429 3.03572,2.321429 0,0 -21.785716,11.25 -13.928573,46.071427 3.035714,1.42857 7.5,6.25 6.785714,11.96429 z"
         transform="translate(0,200)"
         id="path3045"
         style="fill:#f69d15;stroke:none" />
      <path
         d="m 183.59522,62.361615 c 0,0 -6.69226,-10.480333 -32.57742,-1.767767 2.52539,-3.030458 2.52539,-3.914341 2.52539,-3.914341 0,0 -11.36422,3.156727 -16.41498,2.777919 -0.88389,-0.631345 -1.01016,-0.631345 -1.01016,-0.631345 l -22.60216,6.944799 2.90419,-6.313454 c 0,0 -6.31345,3.914342 -8.9651,10.985409 3.40926,-2.399112 3.40926,-3.030457 3.40926,-3.030457 l 0.25254,1.894036 23.23351,-8.20749 -0.50508,1.515229 c 0,0 12.2481,0.252538 15.02602,-2.651651 -1.01015,2.651651 0,3.788073 0,3.788073 0,0 22.72843,-9.091373 34.72399,-1.38896 z"
         transform="translate(0,200)"
         id="path3047"
         style="fill:#feca55;fill-opacity:1;stroke:none" />
      <path
         d="m 157.32143,79.910715 c 0,0 15.53571,-11.875 23.125,0.714286 -5.24877,-3.520334 -7.54924,-5.97294 -23.125,-0.714286 z"
         transform="translate(0,200)"
         id="path3049"
         style="fill:#feca55;stroke:none" />
      <path
         d="m 108.48214,87.500001 c 0,0 14.375,-14.107143 24.28572,-4.821429 -6.84362,-0.751855 -11.20103,-3.422886 -24.28572,4.821429 z"
         transform="translate(0,200)"
         id="path3051"
         style="fill:#feca55;stroke:none" />
      <path
         d="m 99.500025,235.98158 c 0,0 25.758885,-11.99556 29.168155,-15.15229 2.65165,4.79823 6.81853,11.23795 18.30901,19.06663 -6.56598,0.37881 -17.42513,-7.95495 -19.44544,-15.02602 -4.8775,3.0771 -20.18471,11.87337 -28.031725,11.11168 z"
         transform="translate(0,200)"
         id="path3063"
         style="fill:#709d2a;stroke:none" />
      <path
         d="m 208.25729,435.75442 c 0,0 -22.47588,-13.00571 -25.88515,-16.16244 -2.65165,4.79823 -4.16688,13.13199 -15.65736,20.96067 11.23794,-3.78807 17.1726,-11.11168 17.80394,-16.28871 4.8775,3.0771 12.4823,9.47425 23.73857,11.49048 z"
         id="path3065"
         style="fill:#709d2a;stroke:none" />
      <path
         d="m 147.14286,238.83929 c 0,0 0.80357,-5.71429 7.14285,-13.30358 -2.5,-1.69642 -2.85714,-1.42857 -2.85714,-1.42857 0,0 -6.96428,9.73215 -4.28571,14.73215 z"
         transform="translate(0,200)"
         id="path3067"
         style="fill:#709d2a;fill-opacity:1;stroke:none" />
      <path
         d="m 165.72607,438.57143 c 0,0 -3.92857,-9.91072 -9.19642,-13.03572 2.5,-1.69642 2.85714,-1.42857 2.85714,-1.42857 0,0 9.01785,9.46429 6.33928,14.46429 z"
         id="path3069"
         style="fill:#709d2a;fill-opacity:1;stroke:none" />
      <path
         d="m 170.84375,204.78125 c -0.82237,0.0118 -1.72597,0.088 -2.6875,0.28125 0.0752,1.90388 0.23169,3.78891 0.46875,5.5 0.23705,1.71109 0.56643,3.26081 1,4.46875 1.30763,-1.11108 2.3223,-2.1249 2.75,-2.75 0.009,0.40266 -0.0151,0.77135 -0.0937,1.125 -0.0783,0.35365 -0.2126,0.69955 -0.40625,1.0625 -0.3873,0.72591 -1.04416,1.51196 -2.0625,2.625 -1.78055,1.4414 -3.9085,3.006 -5.9375,4.4375 -1.33359,0.94087 -2.54622,1.79199 -3.6875,2.5625 0.57123,0.51799 1.34398,1.35972 2.1875,2.625 0.38863,0.58294 0.81028,1.26999 1.21875,2.0625 0.40847,0.79251 0.81066,1.66657 1.21875,2.6875 0.40809,1.02094 0.80002,2.16932 1.1875,3.4375 0.38748,1.26818 0.77836,2.68448 1.125,4.21875 2.41459,-2.3599 4.52436,-4.38237 6.3125,-6.15625 1.78814,-1.77387 3.24357,-3.29867 4.34375,-4.71875 0.5692,-0.73472 1.06199,-1.44249 1.46875,-2.15625 0.40676,-0.71375 0.71492,-1.43945 0.96875,-2.1875 0.25383,-0.74804 0.45207,-1.53742 0.5625,-2.375 0.11043,-0.83757 0.14847,-1.73641 0.125,-2.71875 -2.3e-4,-1.7e-4 -0.0313,0 -0.0313,0 l 0.0313,-0.0625 c -0.004,-0.17009 0.008,-0.32455 0,-0.5 -0.0512,-1.07472 -0.14978,-2.11855 -0.3125,-3.125 -0.16272,-1.00645 -0.37743,-1.96897 -0.65625,-2.875 -0.27882,-0.90604 -0.63177,-1.75777 -1.03125,-2.53125 -0.39948,-0.77348 -0.85032,-1.45371 -1.375,-2.0625 -0.39351,-0.4566 -0.81389,-0.85984 -1.28125,-1.21875 -0.46736,-0.35892 -0.98001,-0.68904 -1.53125,-0.9375 -0.55124,-0.24846 -1.13607,-0.43727 -1.78125,-0.5625 -0.64517,-0.12522 -1.34459,-0.16703 -2.09375,-0.15625 z m -30.59375,0.125 c -1.3276,0.0251 -2.51791,0.17773 -3.5625,0.4375 -1.04459,0.25976 -1.9571,0.64102 -2.75,1.09375 -0.79291,0.45272 -1.45871,0.98972 -2.03125,1.59375 -0.57253,0.60403 -1.05402,1.25506 -1.4375,1.96875 -0.40903,0.76127 -0.69562,1.5851 -0.90625,2.4375 -0.21063,0.85241 -0.34149,1.73677 -0.375,2.625 -0.0335,0.88823 0.0339,1.7875 0.15625,2.65625 0.12232,0.86876 0.30563,1.70603 0.5625,2.5 0.24479,0.75662 0.55054,1.52504 0.90625,2.28125 0.35571,0.75622 0.75258,1.52591 1.21875,2.28125 0.93232,1.51068 2.09743,2.99566 3.46875,4.5 1.37133,1.50433 2.97466,3.0058 4.78125,4.5 1.80659,1.4942 3.82439,2.98847 6.0625,4.46875 -0.0902,-0.78397 -0.0968,-1.57873 -0.0625,-2.34375 0.0343,-0.76503 0.0872,-1.51917 0.21875,-2.25 0.263,-1.46166 0.73062,-2.82913 1.21875,-4.0625 0.48813,-1.23337 1.00509,-2.30446 1.5,-3.1875 0.49492,-0.88305 0.93538,-1.58932 1.21875,-2 -1.1743,-0.69786 -2.25109,-1.42312 -3.28125,-2.1875 -1.03016,-0.76439 -1.98974,-1.55677 -2.875,-2.34375 -1.77053,-1.57398 -3.25109,-3.13048 -4.4375,-4.53125 -1.1864,-1.40078 -2.09127,-2.65513 -2.6875,-3.53125 -0.59623,-0.87611 -0.90625,-1.375 -0.90625,-1.375 1.12353,0.6408 2.78587,1.99114 3.90625,2.53125 0.29188,-2.19503 0.41335,-5.14811 0.4375,-8.0625 -0.10872,3.6e-4 -0.23698,-0.002 -0.34375,0 z"
         transform="translate(0,200)"
         id="path4040"
         style="fill:#f0e64d;stroke:none" />
      <path
         d="m 136.87567,211.10658 c 0.0654,0.0392 3.52378,1.23039 4.48255,0.12627 -0.44194,2.77792 -0.88388,3.72493 -0.88388,3.72493 z"
         transform="translate(0,200)"
         id="path3071"
         style="fill:#daa90e;stroke:none" />
      <path
         d="m 172.10475,413.00061 c -0.0654,0.0392 -2.89244,0.85159 -3.85121,-0.25253 0.44194,2.77792 0.44194,3.91433 0.44194,3.91433 z"
         id="path3073"
         style="fill:#daa90e;stroke:none" />
      <path
         d="m 141.54762,207.3185 c 0,0 -12.24809,-2.90418 -12.24809,13.00572 -2.39912,-6.43972 -0.37881,-17.04633 12.24809,-16.03617 0.37881,2.52538 0,3.03045 0,3.03045 z"
         transform="translate(0,200)"
         id="path3075"
         style="fill:#daa90e;fill-opacity:1;stroke:none" />
      <path
         d="m 167.9849,407.19223 c 0,0 10.16465,-4.41941 13.32138,13.00572 2.14658,-5.74524 -0.69448,-17.04633 -13.32138,-16.03617 -0.37881,2.52538 0,3.03045 0,3.03045 z"
         id="path3077"
         style="fill:#daa90e;fill-opacity:1;stroke:none" />
      <path
         d="m 161.04848,232.42962 c -1.04327,0.002 -2.11505,0.0411 -3.22622,0.12142 -8.83638,0.63878 -12.16968,2.61513 -16.61676,4.23225 -4.44708,1.61712 -10.20396,2.98578 -24.50886,2.5671 l -1.50904,-0.052 0.71116,1.33558 c 1.06081,1.95189 2.33297,3.28407 3.60781,4.28428 -6.0395,-0.13966 -14.80105,-0.52774 -24.959832,7.44112 l -1.699836,1.33559 2.150813,0.20814 c 1.709416,0.17094 2.970813,0.41878 3.798612,0.62443 -1.191122,1.193 -4.315496,4.50998 -7.28501,11.1877 -3.516726,7.90825 -6.046077,19.60758 -2.341611,34.75991 -0.994736,-0.066 -2.048146,0.0533 -3.139493,0.45097 -2.357185,0.85898 -4.475672,3.01509 -5.984116,5.82801 -1.508444,2.81293 -2.402644,6.32435 -2.168158,10.02557 0.461956,7.29168 5.452302,15.20175 18.455361,19.392 0.0022,0.0765 -0.0022,0.14879 0,0.22549 0.228641,8.54768 0.900572,18.20749 3.070112,23.29469 2.165768,5.07834 8.756178,12.64386 16.772868,19.54811 7.62159,6.56397 16.48718,12.4442 24.14461,14.57002 0.0195,0.32904 0.23035,4.03998 0.27752,8.56856 0.003,0.26041 -0.001,0.53356 0,0.79789 -6.00733,0.028 -9.78835,2.5578 -11.63867,6.00146 -2.52222,3.70587 -1.23707,10.35494 -1.09275,11.153 l -30.527665,16.8596 c 6.321645,-0.63737 24.119655,-11.33398 31.308205,-15.29852 2.56395,6.62235 8.74531,12.89845 18.40332,18.95837 l 1.92533,1.21417 -0.62443,-2.1855 c -1.79872,-6.21373 2.63669,-13.18276 3.60781,-14.60472 0.85654,0.45597 1.74561,0.88649 2.67117,1.28355 l 1.14479,31.63776 c 1.70723,-4.78406 0.85543,-24.27105 0.58974,-31.58572 0.18554,-0.11938 0.93597,-0.59717 2.30692,-1.50904 0.10069,0.0757 0.19827,0.14436 0.36425,0.29487 0.46253,0.41941 1.13954,1.13691 1.90798,2.28957 1.53688,2.30533 3.45518,6.3657 4.83933,13.28648 l 0.31221,1.57842 1.14479,-1.12745 c 5.4512,-5.38131 9.36039,-8.808 11.9162,-12.10699 2.18072,-2.81483 3.32927,-5.59888 3.48639,-9.19299 2.22208,1.64941 6.36518,4.67293 11.1877,7.97882 3.47419,1.3999 11.20776,8.22233 20.34599,9.80007 -4.16391,-1.29543 -12.36418,-6.42851 -19.35731,-11.22238 -5.80545,-3.9797 -10.64644,-7.5679 -12.19372,-8.72467 -0.24309,-4.4398 -1.33437,-8.59137 -3.78127,-11.43053 -1.86889,-2.16848 -4.54838,-3.47467 -7.99617,-3.46905 -0.85682,0.001 -1.76964,0.0748 -2.7232,0.24283 -0.0158,-0.85691 -0.0248,-1.70204 -0.0173,-2.53241 0.0368,-4.10173 0.29087,-7.71404 0.41629,-9.27971 1.72578,-0.6943 2.7232,-1.21417 2.7232,-1.21417 12.6306,-10.49299 22.73873,-23.30006 29.20943,-34.39566 1.0683,-7.01017 1.26122,-14.44603 0.64177,-20.74493 -0.0988,-0.93276 -0.21642,-1.83162 -0.32956,-2.70587 1.34648,1.03574 2.94744,1.46171 4.57915,1.35293 2.78081,-0.18538 5.64766,-1.69903 8.22166,-3.72923 1.50887,-1.1901 2.6555,-3.39149 3.57312,-6.12288 0.91762,-2.73138 1.55494,-6.00611 1.73453,-9.29706 0.17958,-3.29095 -0.0927,-6.59628 -1.04072,-9.41848 -0.94805,-2.82219 -2.6153,-5.19249 -5.22092,-6.34836 -1.07844,-0.47841 -2.13567,-0.70606 -3.15684,-0.74585 0.14889,-1.96614 0.58459,-9.09551 -0.39894,-18.09111 -1.10196,-10.07862 -4.01526,-22.09407 -11.23973,-30.59705 1.62276,-0.38542 3.38232,-0.83257 3.38232,-0.83257 l 1.69984,-0.58974 -1.52638,-0.95399 c 0,0 -1.07421,-0.67053 -2.42834,-1.28355 -0.82959,-0.37555 -1.74536,-0.66034 -2.68852,-0.84992 0.64912,-0.87067 1.22264,-1.75409 1.6478,-2.54975 0.31922,-0.5974 0.5691,-1.13805 0.74585,-1.56107 0.0884,-0.21151 0.15563,-0.39666 0.20814,-0.55505 0.0525,-0.15839 0.12142,-0.18747 0.12142,-0.52036 l 0,-1.1101 -1.07541,0.26018 c -0.65322,0.15553 -2.15171,0.39547 -3.60781,0.84992 -1.00023,0.31217 -2.02956,0.71797 -2.80993,1.38762 -1.82576,-3.25674 -3.83346,-6.51067 -6.40041,-7.71864 l -0.95399,-0.45098 -0.26017,1.02337 c -0.31953,1.2781 -0.41499,3.10134 -0.46833,4.66588 -0.0185,0.54381 -0.0123,0.55535 -0.0173,0.98868 -2.58332,-2.09145 -8.94014,-6.3529 -19.30528,-7.09421 -0.97739,-0.0699 -1.99216,-0.10581 -3.03542,-0.10408 z m 0,1.73453 c 15.04662,-0.0284 22.54884,7.90944 22.54884,7.90944 l 1.52639,1.59577 -0.0173,-2.20285 c 0,0 -0.0171,-1.23868 0.0347,-2.7579 0.0351,-1.03095 0.15792,-1.98443 0.27752,-2.93135 1.69501,1.45352 3.5998,4.31181 5.20358,7.23298 l 0.79789,1.457 0.7285,-1.47435 c 0.28005,-0.5601 1.37642,-1.20901 2.67117,-1.61311 0.68921,-0.2151 1.21669,-0.29954 1.85594,-0.43363 -0.10227,0.21099 -0.16761,0.36893 -0.29487,0.60708 -0.58805,1.1005 -1.43884,2.43209 -2.41099,3.46906 l -1.71718,1.83859 2.48037,-0.39894 c 0.72874,-0.11386 2.26472,0.34105 3.50374,0.90196 0.13421,0.0608 0.11574,0.0605 0.24284,0.12141 -0.69344,0.18562 -0.57717,0.20877 -2.35896,0.5724 l -1.52638,0.31221 1.05806,1.12744 c 7.49238,8.07134 10.56196,20.39473 11.69071,30.71847 1.01797,9.31058 0.49661,16.59717 0.38159,18.00438 -0.7589,0.13774 -1.48313,0.38479 -2.16815,0.71116 -2.06415,0.98344 -3.79082,2.66316 -5.18624,4.44039 -2.19538,2.79606 -3.58544,5.81268 -4.09348,7.00748 l -2.01205,0.12142 c -0.42642,-1.43793 -1.80392,-6.93549 -0.97134,-17.22385 0.98976,-12.23053 -0.63545,-21.22101 -8.68997,-30.70111 -4.16324,-4.90007 -9.92884,-6.23306 -15.83626,-6.0535 -5.2059,0.15823 -10.49667,1.42142 -15.29852,2.46303 0.31147,-0.33941 0.63677,-0.63431 1.07541,-0.95399 1.76062,-1.6386 3.09206,-2.7504 3.13949,-4.4057 -4.62876,3.1684 -14.0668,4.5753 -19.2359,4.92605 0.65996,-0.84464 1.55383,-1.78175 2.60179,-2.58444 1.99598,-1.59102 1.74675,-2.0186 2.23754,-3.60782 0,0 -1.59883,0.93789 -3.2956,2.23754 -1.02455,0.78477 -2.10854,1.66395 -2.914,2.65383 l -0.0867,-0.13876 c -0.7283,0.40784 -2.69133,1.19325 -5.08216,2.02939 -2.39084,0.83614 -5.24997,1.76194 -8.01352,2.63648 -4.55362,1.44103 -7.40049,2.28397 -8.75935,2.68852 0.70092,-1.45328 1.74885,-3.5045 3.33029,-6.14022 l 1.71718,-2.87932 -2.89666,1.68249 c -3.63541,2.10471 -7.20122,6.96695 -10.44185,12.15903 -3.24063,5.19208 -6.08097,10.72354 -7.892095,14.03232 l -0.06938,0.12142 -0.03469,0.13876 c -0.249144,1.3703 -0.168179,3.5793 0.01732,6.29633 0.185552,2.71703 0.49855,5.87634 0.849918,8.89812 0.668897,5.75252 1.367627,10.47247 1.439657,10.96221 l -1.803908,1.16213 c -0.476426,-1.23553 -1.449947,-3.48554 -2.948695,-5.60252 -1.100006,-1.55376 -2.49164,-3.04691 -4.232244,-3.97206 -0.35945,-0.19106 -0.739119,-0.3537 -1.127442,-0.48567 -3.894492,-15.16033 -1.397318,-26.66815 2.046741,-34.41301 3.454632,-7.76856 7.822738,-11.6907 7.822738,-11.6907 l 1.04072,-0.93665 -1.3009,-0.52036 c 0,0 -1.335087,-0.38921 -3.295595,-0.74584 10.651905,-7.46039 19.283685,-5.56844 25.306735,-5.84536 -0.63611,-2.56087 -2.93538,-3.55867 -4.38835,-5.60252 13.1224,0.25442 19.1094,-1.06725 23.52018,-2.67117 4.61146,-1.6769 7.53354,-3.50541 16.14844,-4.12817 1.07023,-0.0774 2.10169,-0.11953 3.1048,-0.12142 z m -8.95016,23.76302 c -0.47212,0.53844 -0.89084,1.16187 -1.24886,1.97736 l -0.67646,1.54372 1.6478,-0.3469 c 5.32844,-1.09392 11.37672,-2.67376 16.99836,-2.84462 5.62163,-0.17088 10.7095,1.00775 14.46595,5.42906 7.78478,9.16263 9.24632,17.41588 8.27369,29.43492 -0.99139,12.25068 1.24886,18.59412 1.24886,18.59412 l 0.22549,0.60708 0.64177,-0.0347 3.22622,-0.20814 c 0.4466,-0.0946 0.51481,-0.26984 0.74588,-0.48567 0,0 1.50525,-3.84984 4.09348,-7.14625 1.29411,-1.6482 2.86104,-3.12706 4.5618,-3.93737 1.70076,-0.81031 3.49098,-1.00608 5.60252,-0.0694 2.05507,0.91164 3.4364,2.80098 4.28428,5.32499 0.84789,2.52401 1.12483,5.64608 0.95399,8.77671 -0.17084,3.13063 -0.787,6.26648 -1.6478,8.82874 -0.8608,2.56226 -2.02157,4.53535 -3.00073,5.30765 -2.40207,1.89458 -5.05489,3.21746 -7.26766,3.36498 -2.00019,0.13335 -3.64289,-0.52632 -4.89137,-2.72321 -0.79402,-3.32239 -1.32841,-5.14273 -2.87931,-6.86872 0.0833,0.70792 0.39033,2.25957 0.76319,4.50977 0.13204,1.16793 0.31099,2.01521 0.45098,2.93132 0.24405,1.65949 0.48489,3.44041 0.69381,5.41172 0.67461,6.36554 0.93228,13.92802 -0.46833,19.82563 -12.58985,20.82857 -28.36943,33.50131 -28.53296,33.63247 -0.24165,0.12532 -13.70299,7.06663 -28.48092,3.6772 -7.36239,-1.68862 -16.68554,-7.72053 -24.57824,-14.51799 -7.8927,-6.79746 -14.40535,-14.45305 -16.30455,-18.90634 -1.895409,-4.44442 -2.704431,-14.18717 -2.931346,-22.67026 -0.226915,-8.48308 0.05201,-15.78419 0.05201,-15.78419 -1.873361,1.3487 -1.860894,12.41396 -1.838598,13.77214 -12.082589,-4.06435 -16.257053,-11.17563 -16.668799,-17.67482 -0.212306,-3.35113 0.601529,-6.55563 1.960015,-9.08892 1.358487,-2.53328 3.269613,-4.36492 5.047472,-5.01278 1.850881,-0.67447 3.348302,-0.42497 4.735257,0.31221 1.386955,0.73719 2.622604,2.01825 3.62516,3.43437 2.005118,2.83223 3.052767,6.08818 3.052767,6.08818 0.375505,0.84657 0.826173,0.69964 1.370276,0.53771 l 3.156836,-2.04674 0.46832,-0.29487 -0.0867,-0.55505 c 0,0 -0.79272,-5.43673 -1.4917,-11.44788 -0.34948,-3.00557 -0.68487,-6.15794 -0.86726,-8.82874 -0.18024,-2.63918 -0.18228,-4.83143 -0.0173,-5.79331 1.83508,-3.36159 4.61191,-8.72167 7.75334,-13.7548 2.01479,-3.22807 4.19641,-6.19587 6.29633,-8.46449 -1.09618,2.11679 -1.89064,3.76393 -1.89064,3.76393 l -0.76319,1.71718 1.80391,-0.52036 c 0,0 5.10359,-1.52307 10.64999,-3.27826 2.7732,-0.87759 5.64677,-1.80791 8.06555,-2.65382 1.3126,-0.45905 2.46248,-0.86885 3.41702,-1.24886 l -0.24284,0.93664 1.16213,-0.0347 c 3.33678,-0.0996 9.706,-0.7843 15.28118,-2.49771 z m 16.70349,8.13492 c -0.52561,0.0213 -1.06388,0.0925 -1.61311,0.20815 -2.92919,0.61671 -6.12032,2.57377 -9.48786,6.33102 l -0.13876,0.15611 -0.052,0.19079 c -0.55473,2.10013 -0.78675,4.21488 -0.78053,7.21563 l 0,1.71718 1.38762,-1.02337 c 0,0 3.77187,-2.78956 8.34307,-4.2149 2.2856,-0.71266 4.74198,-1.07345 6.99014,-0.62442 2.24816,0.44902 4.31003,1.65733 5.98412,4.26693 l 1.43965,2.23754 0.15611,-2.65383 c 0.11077,-1.82793 -0.42145,-4.06569 -1.47435,-6.24429 -1.05289,-2.17861 -2.63074,-4.2863 -4.71791,-5.74128 -1.56538,-1.09124 -3.44214,-1.79852 -5.51579,-1.82126 -0.1728,-0.002 -0.34516,-0.007 -0.52036,0 z m 0.50302,1.71719 c 1.70124,0.0112 3.19838,0.60011 4.52711,1.52638 1.77163,1.23501 3.21605,3.12307 4.16286,5.08216 0.43124,0.89229 0.73284,1.78118 0.95399,2.63648 -1.55127,-1.45889 -3.32263,-2.34057 -5.15154,-2.70586 -2.65344,-0.52998 -5.39471,-0.10877 -7.85741,0.65912 -3.53792,1.10315 -5.98102,2.61045 -7.40642,3.55578 0.0715,-1.89546 0.25297,-3.48521 0.62443,-4.9434 3.13992,-3.45334 5.96521,-5.11193 8.37776,-5.61987 0.61339,-0.12914 1.20213,-0.19452 1.76922,-0.19079 z m -45.4446,3.60781 c -0.67649,0.0163 -1.37872,0.0607 -2.08143,0.15611 -2.81084,0.38183 -5.79514,1.46677 -8.29103,3.85065 -2.4959,2.38387 -4.45987,6.0361 -5.37704,11.41318 l -0.46832,2.74055 1.94267,-1.97736 c 0,0 3.02568,-3.0984 7.35439,-5.20358 4.32872,-2.10517 9.75297,-3.21703 14.91693,0.58974 l 1.07541,0.81523 0.27752,-1.33559 c 1.16505,-5.53397 -0.24283,-9.17564 -0.24283,-9.17564 l -0.13876,-0.36425 -0.36426,-0.13876 c 0,0 -2.84679,-1.10115 -6.64323,-1.33559 -0.63274,-0.0391 -1.28352,-0.051 -1.96002,-0.0347 z m 0.0347,1.73453 c 0.61545,-0.0178 1.22398,-0.001 1.80391,0.0347 3.17203,0.19733 5.3243,0.97669 5.74128,1.12744 0.15716,0.43723 0.79996,2.6592 0.24284,6.53916 -5.43032,-3.27936 -11.18281,-2.12019 -15.50667,-0.0173 -2.41865,1.17625 -4.3535,2.58745 -5.74128,3.71188 0.97887,-3.61743 2.46662,-6.15445 4.24959,-7.8574 2.18888,-2.09064 4.79511,-3.03702 7.33705,-3.38233 0.63548,-0.0863 1.25784,-0.13832 1.87328,-0.15611 z m 44.57733,14.6394 c -0.352,-0.008 -0.7019,0.008 -1.04071,0.0347 -2.03288,0.15697 -3.78338,0.9245 -5.22093,2.04674 -1.91672,1.49632 -3.30934,3.5816 -4.33631,5.6719 -2.05395,4.18061 -2.67117,8.49918 -2.67117,8.49918 l -0.052,0.34691 0.20814,0.29487 c 4.05769,5.43507 10.69286,6.507 16.59942,5.96677 5.90656,-0.54024 11.12417,-2.59832 13.14771,-3.868 l 0.45098,-0.27752 -0.0347,-0.50301 c -0.0489,-0.75796 -0.35778,-1.99429 -0.95399,-3.65985 -0.59622,-1.66557 -1.4916,-3.68458 -2.74056,-5.68925 -2.49791,-4.00934 -6.47302,-8.03216 -12.28044,-8.7767 -0.3693,-0.0473 -0.72341,-0.079 -1.07541,-0.0867 z m -0.052,1.73453 c 0.29819,0.0123 0.60526,0.0464 0.91929,0.0867 5.12591,0.65717 8.67627,4.20886 11.01425,7.96148 1.16898,1.87631 2.02425,3.7774 2.58444,5.34234 0.46885,1.30976 0.62513,2.14811 0.71116,2.67117 -1.9265,1.04415 -6.67305,2.85708 -11.84682,3.33029 -5.46967,0.50028 -11.21305,-0.45517 -14.81285,-4.99544 0.084,-0.52432 0.67626,-4.0131 2.44568,-7.61457 0.95294,-1.93961 2.21509,-3.80152 3.8333,-5.06481 1.21367,-0.94747 2.60585,-1.57962 4.28428,-1.69984 0.27974,-0.02 0.56907,-0.0296 0.86727,-0.0173 z m -41.75006,0.0347 c -8.49367,0.93972 -13.2017,5.4017 -15.66277,9.59193 -2.46107,4.19022 -2.77524,8.16962 -2.77524,8.16962 l -0.0347,0.45097 0.3469,0.27753 c 7.3182,5.97773 14.95575,5.60518 20.60618,3.69454 5.65043,-1.91064 9.47051,-5.325 9.47051,-5.325 l 0.31222,-0.27752 -0.0173,-0.41629 c 0,0 -0.23369,-3.66111 -1.82125,-7.49315 -1.58756,-3.83205 -4.66635,-7.99552 -10.23371,-8.67263 l -0.10407,0 z m 0.0694,1.75187 c 4.74638,0.61759 7.30751,4.09277 8.75935,7.59722 1.3064,3.15338 1.56006,5.85895 1.61311,6.46979 -0.46428,0.39884 -3.60925,3.05856 -8.51652,4.71791 -5.18048,1.75173 -11.83639,2.14665 -18.54209,-3.1048 0.0683,-0.62833 0.42398,-3.5133 2.44568,-6.95545 2.24013,-3.81405 6.34763,-7.81357 14.24047,-8.72467 z m 42.14899,3.33029 c -3.16412,0 -5.77598,2.57266 -5.77598,5.75863 0,3.18596 2.61186,5.74128 5.77598,5.74128 3.16411,0 5.81066,-2.55532 5.81066,-5.74128 0,-3.18598 -2.64655,-5.75863 -5.81066,-5.75863 z m 0,1.78656 c 2.2875,0 4.09348,1.78852 4.09348,3.97207 0,2.18354 -1.80598,3.97206 -4.09348,3.97206 -2.28751,0 -4.07614,-1.78852 -4.07614,-3.97206 0,-2.18356 1.78863,-3.97207 4.07614,-3.97207 z m -42.39183,0.12142 c -3.16412,0 -5.79332,2.55532 -5.79332,5.74128 0,3.18597 2.6292,5.74128 5.79332,5.74128 3.16411,0 5.79332,-2.55531 5.79332,-5.74128 0,-3.18597 -2.62921,-5.74128 -5.79332,-5.74128 z m 0,1.76921 c 2.2875,0 4.09348,1.78853 4.09348,3.97207 0,2.18354 -1.80598,3.97207 -4.09348,3.97207 -2.28751,0 -4.07614,-1.78853 -4.07614,-3.97207 0,-2.18355 1.78863,-3.97207 4.07614,-3.97207 z m 81.48805,10.65 c -1.74673,0.0485 -3.16466,1.30708 -4.38835,2.75789 -2.44738,2.90163 -4.18021,7.02484 -4.18021,7.02484 2.15086,-1.57026 3.05742,-2.92856 4.5965,-4.73526 0.68677,0.49461 1.89164,1.47911 2.51506,2.65382 0.44549,0.83944 0.60098,1.66223 0.17345,2.63648 -0.42753,0.97426 -1.53471,2.19103 -3.93737,3.43437 2.49919,0.42704 4.84874,-1.23973 5.53314,-2.72321 0.6566,-1.49626 0.38906,-3.00487 -0.22549,-4.16286 -0.80998,-1.52624 -2.15385,-2.62825 -2.98339,-3.20888 1.04074,-1.17791 2.13749,-1.92013 2.9487,-1.94267 3.35026,0.67564 2.93278,1.48394 4.52711,2.35896 -0.61046,-1.39666 -1.26473,-2.40042 -2.02939,-3.08746 -0.76467,-0.68704 -1.67639,-1.03028 -2.54976,-1.00602 z m -118.034547,0.97133 c -0.342476,-0.018 -0.670116,0.0118 -0.98868,0.0694 -2.548516,0.46045 -4.180209,2.74055 -4.180209,2.74055 2.50137,-0.64526 5.124629,-1.78269 6.972796,-0.24283 -0.760738,0.50736 -1.787722,1.3434 -2.497718,2.58444 -0.624984,1.09246 -0.982985,2.5286 -0.624429,4.16287 0.358555,1.63427 1.39326,3.44 3.382326,5.42907 -0.694754,-3.14332 -1.161633,-3.57685 -1.68249,-5.79332 -0.265641,-1.21076 -0.01893,-2.14026 0.433631,-2.93135 0.583872,-1.0206 1.540232,-1.7447 2.150813,-2.13347 2.073761,1.5777 2.0428,3.63814 3.902684,4.30163 -1.113455,-3.39424 -2.356391,-5.51026 -3.711886,-6.76466 -1.016621,-0.94079 -2.12941,-1.36817 -3.156838,-1.42231 z m 48.115767,24.21399 c 0,0 -2.13691,5.66169 0.58973,10.09494 1.36333,2.21663 3.98486,3.99717 8.36042,4.42305 4.37556,0.42587 10.54674,-0.41718 19.33997,-3.31295 -4.01952,-0.72464 -13.77911,2.03322 -19.16652,1.57842 -3.99527,-0.38887 -5.98737,-1.84726 -7.05952,-3.59047 -2.70802,-3.37854 -0.98155,-7.1734 -2.06408,-9.19299 z m 34.25689,24.87311 c -4.92616,2.66368 -15.35349,3.69959 -24.54355,3.90268 -8.63139,0.19075 -15.88321,-0.23195 -17.15446,-0.31221 -0.14706,-2.16574 -1.48335,-3.69845 -2.48038,-3.72923 0,0 1.76973,4.17337 -0.13876,8.11758 1.29564,-0.24002 2.3321,-1.03446 2.53241,-2.65383 1.34557,0.084 8.62684,0.50374 17.29323,0.31222 8.97306,-0.1983 19.01479,-0.97652 24.76904,-3.81596 0.96166,1.82878 1.7872,2.39629 3.26091,2.7579 -3.06,-3.6975 -1.40497,-7.82272 -1.40497,-7.82272 -1.36511,0.5799 -2.18901,1.85582 -2.13347,3.24357 z m -13.14771,11.11831 c -5.49908,3.32503 -14.24046,0.20815 -14.24046,0.20815 0.72534,3.41066 12.63705,4.41396 14.24046,-0.20815 z m 7.57988,22.04583 c -0.13801,1.82851 -0.34897,4.94908 -0.38159,8.58591 -0.0486,5.41409 0.21316,11.59569 1.82125,15.41994 -1.6206,1.28527 -3.47803,2.65877 -5.29031,3.93737 -3.80445,2.68413 -6.95314,4.70807 -7.3197,4.9434 -6.31511,-2.64654 -10.98625,-6.93918 -13.96294,-10.33777 0.67115,-3.12995 0.75656,-8.00883 0.71116,-12.36718 -0.0426,-4.09033 -0.2074,-7.15046 -0.26018,-8.10023 10.06435,2.14147 19.39874,-0.1917 24.68231,-2.08144 z m 4.07614,12.61001 c 2.99663,-0.0431 5.12121,1.05292 6.69527,2.87931 2.09874,2.43518 3.17762,6.31643 3.38233,10.61531 0.008,0.17545 -0.004,0.33292 0,0.50301 l -0.0173,0.0347 c 0,0 0.0171,0.0172 0.0173,0.0173 0.0939,3.92937 -0.84534,6.47961 -3.12215,9.41848 -2.20036,2.84017 -5.83814,6.15569 -10.66734,10.87548 -1.38656,-6.13708 -3.18076,-10.07013 -4.73525,-12.40187 -0.84353,-1.26529 -1.61427,-2.08381 -2.18551,-2.60179 -0.0104,-0.009 -0.0244,-0.008 -0.0347,-0.0173 1.14674,-0.77409 2.388,-1.62083 3.72923,-2.56709 2.029,-1.4315 4.15153,-2.98164 5.93208,-4.42305 2.03669,-2.22607 2.58534,-3.21136 2.54976,-4.82198 -0.4277,0.6251 -1.45027,1.62947 -2.7579,2.74055 -0.86714,-2.41587 -1.30658,-6.14843 -1.457,-9.95618 0.96153,-0.19328 1.8488,-0.28304 2.67117,-0.29487 z m -30.5797,0.13876 c 0.10677,-0.002 0.22085,3.6e-4 0.32956,0 -0.0242,2.91439 -0.12441,5.85318 -0.41629,8.04821 -1.12038,-0.54011 -2.77915,-1.89161 -3.90268,-2.53241 0,0 4.79405,8.41479 14.18842,13.99762 -1.13347,1.64275 -4.83264,7.55245 -4.11082,13.82418 -8.95244,-5.92115 -14.46766,-11.96876 -16.42597,-18.02173 -1.02749,-3.17587 -1.06377,-7.17128 0.57239,-10.21636 1.5339,-2.85476 4.45502,-4.99888 9.76539,-5.09951 z"
         id="path2997"
         style="font-size:medium;font-style:normal;font-variant:normal;font-weight:normal;font-stretch:normal;text-indent:0;text-align:start;text-decoration:none;line-height:normal;letter-spacing:normal;word-spacing:normal;text-transform:none;direction:ltr;block-progression:tb;writing-mode:lr-tb;text-anchor:start;baseline-shift:baseline;color:#000000;fill:#000000;fill-opacity:1;stroke:none;stroke-width:3.125;marker:none;visibility:visible;display:inline;overflow:visible;enable-background:accumulate;font-family:Sans;-inkscape-font-specification:Sans" />
      <path
         d="m 128.92071,100.62114 a 1.3258252,1.1364216 0 1 1 -2.65165,0 1.3258252,1.1364216 0 1 1 2.65165,0 z"
         transform="translate(0,200)"
         id="path3037"
         style="fill:#ffec92;fill-opacity:1;stroke:none" />
      <path
         d="m 128.92071,100.62114 a 1.3258252,1.1364216 0 1 1 -2.65165,0 1.3258252,1.1364216 0 1 1 2.65165,0 z"
         transform="translate(42.552676,198.23223)"
         id="path3039"
         style="fill:#ffec92;fill-opacity:1;stroke:none" />
      <path
         d="m 137.12821,122.8445 a 13.763329,4.4194174 0 1 1 -27.52666,0 13.763329,4.4194174 0 1 1 27.52666,0 z"
         transform="matrix(0.79816514,0,0,0.88571429,20.858723,217.06983)"
         id="path3053"
         style="fill:#ffec92;fill-opacity:1;stroke:none" />
      <path
         d="m 137.12821,122.8445 a 13.763329,4.4194174 0 1 1 -27.52666,0 13.763329,4.4194174 0 1 1 27.52666,0 z"
         transform="matrix(0.77064221,0,0,0.82857143,79.686208,221.05906)"
         id="path3055"
         style="fill:#ffec92;fill-opacity:1;stroke:none" />
      <path
         d="m 137.12821,122.8445 a 13.763329,4.4194174 0 1 1 -27.52666,0 13.763329,4.4194174 0 1 1 27.52666,0 z"
         transform="matrix(0.11220499,-0.05299739,0.17819196,0.67204863,108.26199,263.20316)"
         id="path3057"
         style="fill:#ffec92;fill-opacity:1;stroke:none" />
      <path
         d="m 137.12821,122.8445 a 13.763329,4.4194174 0 1 1 -27.52666,0 13.763329,4.4194174 0 1 1 27.52666,0 z"
         transform="matrix(0.05874069,-0.10930789,0.54272047,0.43457591,136.99988,263.71423)"
         id="path3059"
         style="fill:#ffec92;fill-opacity:1;stroke:none" />
      <path
         d="m 137.12821,122.8445 a 13.763329,4.4194174 0 1 1 -27.52666,0 13.763329,4.4194174 0 1 1 27.52666,0 z"
         transform="matrix(0.09206239,0.05732608,-0.41093277,0.44649507,125.60205,244.40803)"
         id="path3061"
         style="fill:#ffec92;fill-opacity:1;stroke:none" />
    </g>
  </g>
</svg>
